<svg xmlns:xlink="http://www.w3.org/1999/xlink" width="3.264ex" height="2.843ex" style="font-size: 15px; vertical-align: -0.838ex;" viewBox="0 -863.1 1405.5 1223.9" role="img" focusable="false" xmlns="http://www.w3.org/2000/svg">
<defs>
<path stroke-width="1" id="E1-MJMAIN-7C" d="M139 -249H137Q125 -249 119 -235V251L120 737Q130 750 139 750Q152 750 159 735V-235Q151 -249 141 -249H139Z"></path>
<path stroke-width="1" id="E1-MJCAL-52" d="M37 475Q19 475 19 487Q19 503 35 530T83 589T180 647T327 682H374Q387 682 417 682T464 683Q519 683 559 679T642 663T708 625T731 557Q731 481 668 411T504 300Q506 296 512 286T528 257T553 202Q594 105 611 82Q635 47 665 47Q708 47 742 93Q758 113 786 128Q804 136 819 137Q837 137 837 125Q837 115 818 92T767 43T687 -2T589 -22Q549 -22 517 22T467 120T422 221T362 273Q346 273 346 287Q348 301 373 320T436 342Q437 342 446 343T462 345T481 348T504 353T527 362T553 375T577 393Q598 412 614 443T630 511Q630 545 613 566T541 600T393 614Q370 614 370 613L366 584Q349 446 311 307T243 96L213 25Q205 8 179 -7T132 -22Q125 -22 120 -18T117 -8Q117 -5 130 26T163 113T205 239T246 408T274 606V614Q273 614 259 613T231 609T198 602T163 588Q131 572 113 518Q102 502 80 490T37 475Z"></path>
</defs>
<g stroke="currentColor" fill="currentColor" stroke-width="0" transform="matrix(1 0 0 -1 0 0)">
 <use xlink:href="#E1-MJMAIN-7C" x="0" y="0"></use>
 <use xlink:href="#E1-MJCAL-52" x="278" y="0"></use>
 <use xlink:href="#E1-MJMAIN-7C" x="1127" y="0"></use>
</g>
</svg>