<svg xmlns:xlink="http://www.w3.org/1999/xlink" width="2.406ex" height="2.009ex" style="font-size: 15px; vertical-align: -0.671ex;" viewBox="0 -576.1 1036.1 865.1" role="img" focusable="false" xmlns="http://www.w3.org/2000/svg">
<defs>
<path stroke-width="1" id="E1-MJMAINB-7A" d="M48 262Q48 264 54 349T60 436V444H252Q289 444 336 444T394 445Q441 445 450 441T459 418Q459 406 458 404Q456 399 327 229T194 55H237Q260 56 268 56T297 58T325 65T348 77T370 98T384 128T395 170Q400 197 400 216Q400 217 431 217H462V211Q461 208 453 108T444 6V0H245Q46 0 43 2Q32 7 32 28V33Q32 41 40 52T84 112Q129 170 164 217L298 393H256Q189 392 165 380Q124 360 115 303Q110 280 110 256Q110 254 79 254H48V262Z"></path>
<path stroke-width="1" id="E1-MJMATHI-6E" d="M21 287Q22 293 24 303T36 341T56 388T89 425T135 442Q171 442 195 424T225 390T231 369Q231 367 232 367L243 378Q304 442 382 442Q436 442 469 415T503 336T465 179T427 52Q427 26 444 26Q450 26 453 27Q482 32 505 65T540 145Q542 153 560 153Q580 153 580 145Q580 144 576 130Q568 101 554 73T508 17T439 -10Q392 -10 371 17T350 73Q350 92 386 193T423 345Q423 404 379 404H374Q288 404 229 303L222 291L189 157Q156 26 151 16Q138 -11 108 -11Q95 -11 87 -5T76 7T74 17Q74 30 112 180T152 343Q153 348 153 366Q153 405 129 405Q91 405 66 305Q60 285 60 284Q58 278 41 278H27Q21 284 21 287Z"></path>
</defs>
<g stroke="currentColor" fill="currentColor" stroke-width="0" transform="matrix(1 0 0 -1 0 0)">
 <use xlink:href="#E1-MJMAINB-7A" x="0" y="0"></use>
 <use transform="scale(0.707)" xlink:href="#E1-MJMATHI-6E" x="723" y="-213"></use>
</g>
</svg>