<svg xmlns:xlink="http://www.w3.org/1999/xlink" width="3.02ex" height="2.509ex" style="font-size: 15px; vertical-align: -0.671ex;" viewBox="0 -791.3 1300.3 1080.4" role="img" focusable="false" xmlns="http://www.w3.org/2000/svg">
<defs>
<path stroke-width="1" id="E1-MJMAINB-3A3" d="M766 271Q764 266 750 137T735 4V0H407Q74 0 71 4L70 5Q64 9 64 18Q64 24 82 41T213 158L359 288Q360 288 320 336T214 460Q67 633 66 635Q64 638 64 655Q64 679 75 684Q78 686 407 686H735V682Q738 676 751 558T766 434V430H735Q704 430 704 431Q704 434 703 444T696 477T681 520T654 563T613 598Q578 615 527 619T371 624H281L396 489Q506 358 513 351Q517 342 512 334Q503 325 371 208Q338 179 303 147T249 99L231 83L243 81Q258 81 364 81Q382 81 418 81T470 82T513 83T554 88T587 96T619 109T645 129Q689 173 702 260L704 274Q704 275 735 275H766V271Z"></path>
<path stroke-width="1" id="E1-MJMATHI-6B" d="M121 647Q121 657 125 670T137 683Q138 683 209 688T282 694Q294 694 294 686Q294 679 244 477Q194 279 194 272Q213 282 223 291Q247 309 292 354T362 415Q402 442 438 442Q468 442 485 423T503 369Q503 344 496 327T477 302T456 291T438 288Q418 288 406 299T394 328Q394 353 410 369T442 390L458 393Q446 405 434 405H430Q398 402 367 380T294 316T228 255Q230 254 243 252T267 246T293 238T320 224T342 206T359 180T365 147Q365 130 360 106T354 66Q354 26 381 26Q429 26 459 145Q461 153 479 153H483Q499 153 499 144Q499 139 496 130Q455 -11 378 -11Q333 -11 305 15T277 90Q277 108 280 121T283 145Q283 167 269 183T234 206T200 217T182 220H180Q168 178 159 139T145 81T136 44T129 20T122 7T111 -2Q98 -11 83 -11Q66 -11 57 -1T48 16Q48 26 85 176T158 471L195 616Q196 629 188 632T149 637H144Q134 637 131 637T124 640T121 647Z"></path>
</defs>
<g stroke="currentColor" fill="currentColor" stroke-width="0" transform="matrix(1 0 0 -1 0 0)">
 <use xlink:href="#E1-MJMAINB-3A3" x="0" y="0"></use>
 <use transform="scale(0.707)" xlink:href="#E1-MJMATHI-6B" x="1175" y="-213"></use>
</g>
</svg>