<svg xmlns:xlink="http://www.w3.org/1999/xlink" width="33.624ex" height="7.509ex" style="font-size: 15px; vertical-align: -3.171ex;" viewBox="0 -1867.7 14477 3233.2" role="img" focusable="false" xmlns="http://www.w3.org/2000/svg">
<defs>
<path stroke-width="1" id="E1-MJMAIN-6C" d="M42 46H56Q95 46 103 60V68Q103 77 103 91T103 124T104 167T104 217T104 272T104 329Q104 366 104 407T104 482T104 542T103 586T103 603Q100 622 89 628T44 637H26V660Q26 683 28 683L38 684Q48 685 67 686T104 688Q121 689 141 690T171 693T182 694H185V379Q185 62 186 60Q190 52 198 49Q219 46 247 46H263V0H255L232 1Q209 2 183 2T145 3T107 3T57 1L34 0H26V46H42Z"></path>
<path stroke-width="1" id="E1-MJMAIN-6E" d="M41 46H55Q94 46 102 60V68Q102 77 102 91T102 122T103 161T103 203Q103 234 103 269T102 328V351Q99 370 88 376T43 385H25V408Q25 431 27 431L37 432Q47 433 65 434T102 436Q119 437 138 438T167 441T178 442H181V402Q181 364 182 364T187 369T199 384T218 402T247 421T285 437Q305 442 336 442Q450 438 463 329Q464 322 464 190V104Q464 66 466 59T477 49Q498 46 526 46H542V0H534L510 1Q487 2 460 2T422 3Q319 3 310 0H302V46H318Q379 46 379 62Q380 64 380 200Q379 335 378 343Q372 371 358 385T334 402T308 404Q263 404 229 370Q202 343 195 315T187 232V168V108Q187 78 188 68T191 55T200 49Q221 46 249 46H265V0H257L234 1Q210 2 183 2T145 3Q42 3 33 0H25V46H41Z"></path>
<path stroke-width="1" id="E1-MJMATHI-70" d="M23 287Q24 290 25 295T30 317T40 348T55 381T75 411T101 433T134 442Q209 442 230 378L240 387Q302 442 358 442Q423 442 460 395T497 281Q497 173 421 82T249 -10Q227 -10 210 -4Q199 1 187 11T168 28L161 36Q160 35 139 -51T118 -138Q118 -144 126 -145T163 -148H188Q194 -155 194 -157T191 -175Q188 -187 185 -190T172 -194Q170 -194 161 -194T127 -193T65 -192Q-5 -192 -24 -194H-32Q-39 -187 -39 -183Q-37 -156 -26 -148H-6Q28 -147 33 -136Q36 -130 94 103T155 350Q156 355 156 364Q156 405 131 405Q109 405 94 377T71 316T59 280Q57 278 43 278H29Q23 284 23 287ZM178 102Q200 26 252 26Q282 26 310 49T356 107Q374 141 392 215T411 325V331Q411 405 350 405Q339 405 328 402T306 393T286 380T269 365T254 350T243 336T235 326L232 322Q232 321 229 308T218 264T204 212Q178 106 178 102Z"></path>
<path stroke-width="1" id="E1-MJMAIN-28" d="M94 250Q94 319 104 381T127 488T164 576T202 643T244 695T277 729T302 750H315H319Q333 750 333 741Q333 738 316 720T275 667T226 581T184 443T167 250T184 58T225 -81T274 -167T316 -220T333 -241Q333 -250 318 -250H315H302L274 -226Q180 -141 137 -14T94 250Z"></path>
<path stroke-width="1" id="E1-MJMAINB-58" d="M327 0Q306 3 174 3Q52 3 43 0H33V62H98L162 63L360 333L157 624H48V686H59Q80 683 217 683Q368 683 395 686H408V624H335L393 540L452 458L573 623Q573 624 528 624H483V686H494Q515 683 646 683Q769 683 778 686H787V624H658L575 511Q493 398 493 397L508 376Q522 356 553 312T611 229L727 62H835V0H824Q803 3 667 3Q516 3 489 0H476V62H513L549 63L401 274L247 63Q247 62 292 62H338V0H327Z"></path>
<path stroke-width="1" id="E1-MJMAIN-7C" d="M139 -249H137Q125 -249 119 -235V251L120 737Q130 750 139 750Q152 750 159 735V-235Q151 -249 141 -249H139Z"></path>
<path stroke-width="1" id="E1-MJMATHBI-3C0" d="M55 289H43Q23 289 23 303Q23 308 33 322Q116 434 199 443Q200 444 418 444Q591 444 617 444T652 439Q674 426 674 400Q674 378 661 360T625 335Q621 334 549 333H479L477 321Q476 312 476 279Q476 219 491 174T521 104T536 65Q536 38 511 15T457 -8Q403 -8 386 94Q384 110 384 139Q384 181 391 229T406 304L413 331Q413 333 365 333H316L315 329Q315 328 312 314T301 272T288 220Q274 167 258 103Q244 49 240 38T228 18Q225 16 224 14Q200 -8 172 -8Q146 -8 132 7T118 44Q118 54 121 61Q122 65 142 102T190 195T235 293Q250 329 250 333Q177 333 166 332Q115 328 88 301L77 290L55 289Z"></path>
<path stroke-width="1" id="E1-MJMAIN-2C" d="M78 35T78 60T94 103T137 121Q165 121 187 96T210 8Q210 -27 201 -60T180 -117T154 -158T130 -185T117 -194Q113 -194 104 -185T95 -172Q95 -168 106 -156T131 -126T157 -76T173 -3V9L172 8Q170 7 167 6T161 3T152 1T140 0Q113 0 96 17Z"></path>
<path stroke-width="1" id="E1-MJMATHBI-3BC" d="M294 -8Q265 -8 244 -5T213 1T201 4Q200 4 192 -32T172 -111T155 -168Q134 -211 86 -211Q62 -211 48 -196T34 -158Q37 -144 103 123T174 404Q182 424 201 438T244 452Q271 452 284 436T298 404Q298 392 267 269T235 114Q235 43 305 43Q342 43 375 68T418 110Q420 112 455 253T492 397Q514 444 562 444Q587 444 601 429T615 397Q615 387 599 320T563 178T542 93Q540 81 540 72Q540 42 558 42Q580 42 596 75Q606 94 616 134Q621 155 624 158T646 162H651H662Q682 162 682 148Q681 142 679 132T665 94T641 47T602 9T548 -8Q523 -8 502 -3T468 11T446 27T432 40L429 46Q367 -8 294 -8Z"></path>
<path stroke-width="1" id="E1-MJMAINB-3A3" d="M766 271Q764 266 750 137T735 4V0H407Q74 0 71 4L70 5Q64 9 64 18Q64 24 82 41T213 158L359 288Q360 288 320 336T214 460Q67 633 66 635Q64 638 64 655Q64 679 75 684Q78 686 407 686H735V682Q738 676 751 558T766 434V430H735Q704 430 704 431Q704 434 703 444T696 477T681 520T654 563T613 598Q578 615 527 619T371 624H281L396 489Q506 358 513 351Q517 342 512 334Q503 325 371 208Q338 179 303 147T249 99L231 83L243 81Q258 81 364 81Q382 81 418 81T470 82T513 83T554 88T587 96T619 109T645 129Q689 173 702 260L704 274Q704 275 735 275H766V271Z"></path>
<path stroke-width="1" id="E1-MJMAIN-29" d="M60 749L64 750Q69 750 74 750H86L114 726Q208 641 251 514T294 250Q294 182 284 119T261 12T224 -76T186 -143T145 -194T113 -227T90 -246Q87 -249 86 -250H74Q66 -250 63 -250T58 -247T55 -238Q56 -237 66 -225Q221 -64 221 250T66 725Q56 737 55 738Q55 746 60 749Z"></path>
<path stroke-width="1" id="E1-MJMAIN-2B" d="M56 237T56 250T70 270H369V420L370 570Q380 583 389 583Q402 583 409 568V270H707Q722 262 722 250T707 230H409V-68Q401 -82 391 -82H389H387Q375 -82 369 -68V230H70Q56 237 56 250Z"></path>
<path stroke-width="1" id="E1-MJMATHI-3BB" d="M166 673Q166 685 183 694H202Q292 691 316 644Q322 629 373 486T474 207T524 67Q531 47 537 34T546 15T551 6T555 2T556 -2T550 -11H482Q457 3 450 18T399 152L354 277L340 262Q327 246 293 207T236 141Q211 112 174 69Q123 9 111 -1T83 -12Q47 -12 47 20Q47 37 61 52T199 187Q229 216 266 252T321 306L338 322Q338 323 288 462T234 612Q214 657 183 657Q166 657 166 673Z"></path>
<path stroke-width="1" id="E1-MJSZ2-2211" d="M60 948Q63 950 665 950H1267L1325 815Q1384 677 1388 669H1348L1341 683Q1320 724 1285 761Q1235 809 1174 838T1033 881T882 898T699 902H574H543H251L259 891Q722 258 724 252Q725 250 724 246Q721 243 460 -56L196 -356Q196 -357 407 -357Q459 -357 548 -357T676 -358Q812 -358 896 -353T1063 -332T1204 -283T1307 -196Q1328 -170 1348 -124H1388Q1388 -125 1381 -145T1356 -210T1325 -294L1267 -449L666 -450Q64 -450 61 -448Q55 -446 55 -439Q55 -437 57 -433L590 177Q590 178 557 222T452 366T322 544L56 909L55 924Q55 945 60 948Z"></path>
<path stroke-width="1" id="E1-MJMATHI-6B" d="M121 647Q121 657 125 670T137 683Q138 683 209 688T282 694Q294 694 294 686Q294 679 244 477Q194 279 194 272Q213 282 223 291Q247 309 292 354T362 415Q402 442 438 442Q468 442 485 423T503 369Q503 344 496 327T477 302T456 291T438 288Q418 288 406 299T394 328Q394 353 410 369T442 390L458 393Q446 405 434 405H430Q398 402 367 380T294 316T228 255Q230 254 243 252T267 246T293 238T320 224T342 206T359 180T365 147Q365 130 360 106T354 66Q354 26 381 26Q429 26 459 145Q461 153 479 153H483Q499 153 499 144Q499 139 496 130Q455 -11 378 -11Q333 -11 305 15T277 90Q277 108 280 121T283 145Q283 167 269 183T234 206T200 217T182 220H180Q168 178 159 139T145 81T136 44T129 20T122 7T111 -2Q98 -11 83 -11Q66 -11 57 -1T48 16Q48 26 85 176T158 471L195 616Q196 629 188 632T149 637H144Q134 637 131 637T124 640T121 647Z"></path>
<path stroke-width="1" id="E1-MJMAIN-3D" d="M56 347Q56 360 70 367H707Q722 359 722 347Q722 336 708 328L390 327H72Q56 332 56 347ZM56 153Q56 168 72 173H708Q722 163 722 153Q722 140 707 133H70Q56 140 56 153Z"></path>
<path stroke-width="1" id="E1-MJMAIN-31" d="M213 578L200 573Q186 568 160 563T102 556H83V602H102Q149 604 189 617T245 641T273 663Q275 666 285 666Q294 666 302 660V361L303 61Q310 54 315 52T339 48T401 46H427V0H416Q395 3 257 3Q121 3 100 0H88V46H114Q136 46 152 46T177 47T193 50T201 52T207 57T213 61V578Z"></path>
<path stroke-width="1" id="E1-MJMATHI-4B" d="M285 628Q285 635 228 637Q205 637 198 638T191 647Q191 649 193 661Q199 681 203 682Q205 683 214 683H219Q260 681 355 681Q389 681 418 681T463 682T483 682Q500 682 500 674Q500 669 497 660Q496 658 496 654T495 648T493 644T490 641T486 639T479 638T470 637T456 637Q416 636 405 634T387 623L306 305Q307 305 490 449T678 597Q692 611 692 620Q692 635 667 637Q651 637 651 648Q651 650 654 662T659 677Q662 682 676 682Q680 682 711 681T791 680Q814 680 839 681T869 682Q889 682 889 672Q889 650 881 642Q878 637 862 637Q787 632 726 586Q710 576 656 534T556 455L509 418L518 396Q527 374 546 329T581 244Q656 67 661 61Q663 59 666 57Q680 47 717 46H738Q744 38 744 37T741 19Q737 6 731 0H720Q680 3 625 3Q503 3 488 0H478Q472 6 472 9T474 27Q478 40 480 43T491 46H494Q544 46 544 71Q544 75 517 141T485 216L427 354L359 301L291 248L268 155Q245 63 245 58Q245 51 253 49T303 46H334Q340 37 340 35Q340 19 333 5Q328 0 317 0Q314 0 280 1T180 2Q118 2 85 2T49 1Q31 1 31 11Q31 13 34 25Q38 41 42 43T65 46Q92 46 125 49Q139 52 144 61Q147 65 216 339T285 628Z"></path>
<path stroke-width="1" id="E1-MJMATHI-3C0" d="M132 -11Q98 -11 98 22V33L111 61Q186 219 220 334L228 358H196Q158 358 142 355T103 336Q92 329 81 318T62 297T53 285Q51 284 38 284Q19 284 19 294Q19 300 38 329T93 391T164 429Q171 431 389 431Q549 431 553 430Q573 423 573 402Q573 371 541 360Q535 358 472 358H408L405 341Q393 269 393 222Q393 170 402 129T421 65T431 37Q431 20 417 5T381 -10Q370 -10 363 -7T347 17T331 77Q330 86 330 121Q330 170 339 226T357 318T367 358H269L268 354Q268 351 249 275T206 114T175 17Q164 -11 132 -11Z"></path>
<path stroke-width="1" id="E1-MJMAIN-2212" d="M84 237T84 250T98 270H679Q694 262 694 250T679 230H98Q84 237 84 250Z"></path>
<path stroke-width="1" id="E1-MJSZ4-28" d="M758 -1237T758 -1240T752 -1249H736Q718 -1249 717 -1248Q711 -1245 672 -1199Q237 -706 237 251T672 1700Q697 1730 716 1749Q718 1750 735 1750H752Q758 1744 758 1741Q758 1737 740 1713T689 1644T619 1537T540 1380T463 1176Q348 802 348 251Q348 -242 441 -599T744 -1218Q758 -1237 758 -1240Z"></path>
<path stroke-width="1" id="E1-MJSZ4-29" d="M33 1741Q33 1750 51 1750H60H65Q73 1750 81 1743T119 1700Q554 1207 554 251Q554 -707 119 -1199Q76 -1250 66 -1250Q65 -1250 62 -1250T56 -1249Q55 -1249 53 -1249T49 -1250Q33 -1250 33 -1239Q33 -1236 50 -1214T98 -1150T163 -1052T238 -910T311 -727Q443 -335 443 251Q443 402 436 532T405 831T339 1142T224 1438T50 1716Q33 1737 33 1741Z"></path>
</defs>
<g stroke="currentColor" fill="currentColor" stroke-width="0" transform="matrix(1 0 0 -1 0 0)">
 <use xlink:href="#E1-MJMAIN-6C"></use>
 <use xlink:href="#E1-MJMAIN-6E" x="278" y="0"></use>
 <use xlink:href="#E1-MJMATHI-70" x="1001" y="0"></use>
 <use xlink:href="#E1-MJMAIN-28" x="1505" y="0"></use>
 <use xlink:href="#E1-MJMAINB-58" x="1894" y="0"></use>
 <use xlink:href="#E1-MJMAIN-7C" x="2764" y="0"></use>
 <use xlink:href="#E1-MJMATHBI-3C0" x="3042" y="0"></use>
 <use xlink:href="#E1-MJMAIN-2C" x="3725" y="0"></use>
 <use xlink:href="#E1-MJMATHBI-3BC" x="4170" y="0"></use>
 <use xlink:href="#E1-MJMAIN-2C" x="4878" y="0"></use>
 <use xlink:href="#E1-MJMAINB-3A3" x="5324" y="0"></use>
 <use xlink:href="#E1-MJMAIN-29" x="6155" y="0"></use>
 <use xlink:href="#E1-MJMAIN-2B" x="6767" y="0"></use>
 <use xlink:href="#E1-MJMATHI-3BB" x="7767" y="0"></use>
<g transform="translate(8518,0)">
 <use xlink:href="#E1-MJSZ4-28"></use>
<g transform="translate(792,0)">
 <use xlink:href="#E1-MJSZ2-2211" x="0" y="0"></use>
<g transform="translate(85,-1110)">
 <use transform="scale(0.707)" xlink:href="#E1-MJMATHI-6B" x="0" y="0"></use>
 <use transform="scale(0.707)" xlink:href="#E1-MJMAIN-3D" x="521" y="0"></use>
 <use transform="scale(0.707)" xlink:href="#E1-MJMAIN-31" x="1300" y="0"></use>
</g>
 <use transform="scale(0.707)" xlink:href="#E1-MJMATHI-4B" x="576" y="1627"></use>
<g transform="translate(1611,0)">
 <use xlink:href="#E1-MJMATHI-3C0" x="0" y="0"></use>
 <use transform="scale(0.707)" xlink:href="#E1-MJMATHI-6B" x="806" y="-213"></use>
</g>
 <use xlink:href="#E1-MJMAIN-2212" x="2872" y="0"></use>
 <use xlink:href="#E1-MJMAIN-31" x="3873" y="0"></use>
</g>
 <use xlink:href="#E1-MJSZ4-29" x="5166" y="0"></use>
</g>
</g>
</svg>