<svg xmlns:xlink="http://www.w3.org/1999/xlink" width="17.665ex" height="3.176ex" style="font-size: 15px; vertical-align: -0.838ex;" viewBox="0 -1006.6 7605.8 1367.4" role="img" focusable="false" xmlns="http://www.w3.org/2000/svg">
<defs>
<path stroke-width="1" id="E1-MJMAINB-31" d="M481 0L294 3Q136 3 109 0H96V62H227V304Q227 546 225 546Q169 529 97 529H80V591H97Q231 591 308 647L319 655H333Q355 655 359 644Q361 640 361 351V62H494V0H481Z"></path>
<path stroke-width="1" id="E1-MJMATHI-54" d="M40 437Q21 437 21 445Q21 450 37 501T71 602L88 651Q93 669 101 677H569H659Q691 677 697 676T704 667Q704 661 687 553T668 444Q668 437 649 437Q640 437 637 437T631 442L629 445Q629 451 635 490T641 551Q641 586 628 604T573 629Q568 630 515 631Q469 631 457 630T439 622Q438 621 368 343T298 60Q298 48 386 46Q418 46 427 45T436 36Q436 31 433 22Q429 4 424 1L422 0Q419 0 415 0Q410 0 363 1T228 2Q99 2 64 0H49Q43 6 43 9T45 27Q49 40 55 46H83H94Q174 46 189 55Q190 56 191 56Q196 59 201 76T241 233Q258 301 269 344Q339 619 339 625Q339 630 310 630H279Q212 630 191 624Q146 614 121 583T67 467Q60 445 57 441T43 437H40Z"></path>
<path stroke-width="1" id="E1-MJMAIN-28" d="M94 250Q94 319 104 381T127 488T164 576T202 643T244 695T277 729T302 750H315H319Q333 750 333 741Q333 738 316 720T275 667T226 581T184 443T167 250T184 58T225 -81T274 -167T316 -220T333 -241Q333 -250 318 -250H315H302L274 -226Q180 -141 137 -14T94 250Z"></path>
<path stroke-width="1" id="E1-MJMATHBI-75" d="M189 389Q189 397 187 399T176 401Q150 399 126 372T89 304Q84 288 81 285T61 282H55H44Q24 282 24 296Q24 307 35 331T65 383T117 431T187 452Q237 452 272 427T308 362Q308 347 273 254T238 111Q238 43 291 43Q319 43 344 58T380 86T391 103T426 247T464 396Q472 414 491 429T535 444T574 429T588 397Q588 390 570 315T534 168L516 97Q514 89 514 72Q514 42 531 42Q544 42 556 56Q574 76 589 134Q594 155 598 158T619 162H624H635Q655 162 655 148Q654 142 652 132T638 94T614 47T575 9T520 -8Q509 -8 498 -7T478 -3T461 2T446 8T434 16T424 23T416 29T410 35T406 39L405 41L397 34Q347 -7 288 -7H281Q148 -7 122 78Q116 95 116 125V136Q116 174 152 273T189 389Z"></path>
<path stroke-width="1" id="E1-MJMAIN-2299" d="M56 250Q56 394 156 488T384 583Q530 583 626 485T722 250Q722 110 625 14T390 -83Q249 -83 153 14T56 250ZM682 250Q682 322 649 387T546 497T381 542Q272 542 184 459T95 250Q95 132 178 45T389 -42Q515 -42 598 45T682 250ZM311 250Q311 285 332 304T375 328Q376 328 382 328T392 329Q424 326 445 305T466 250Q466 217 445 195T389 172Q354 172 333 195T311 250Z"></path>
<path stroke-width="1" id="E1-MJMATHBI-76" d="M380 367Q380 397 406 425T465 453Q493 453 516 430T540 357Q540 314 524 250T467 115T373 13Q338 -8 292 -8Q218 -8 167 23T116 129Q116 178 152 275T189 388Q189 396 187 398T176 401Q148 398 125 372T89 304Q84 288 81 285T61 282H55H44Q24 282 24 296Q24 306 34 330T64 382T116 431T189 452Q231 452 269 429T308 362Q308 346 273 255T238 114Q238 43 306 43Q336 43 363 65T407 118T437 182T456 239T462 268Q462 290 417 315Q380 335 380 367Z"></path>
<path stroke-width="1" id="E1-MJMAIN-29" d="M60 749L64 750Q69 750 74 750H86L114 726Q208 641 251 514T294 250Q294 182 284 119T261 12T224 -76T186 -143T145 -194T113 -227T90 -246Q87 -249 86 -250H74Q66 -250 63 -250T58 -247T55 -238Q56 -237 66 -225Q221 -64 221 250T66 725Q56 737 55 738Q55 746 60 749Z"></path>
<path stroke-width="1" id="E1-MJMAIN-3D" d="M56 347Q56 360 70 367H707Q722 359 722 347Q722 336 708 328L390 327H72Q56 332 56 347ZM56 153Q56 168 72 173H708Q722 163 722 153Q722 140 707 133H70Q56 140 56 153Z"></path>
</defs>
<g stroke="currentColor" fill="currentColor" stroke-width="0" transform="matrix(1 0 0 -1 0 0)">
 <use xlink:href="#E1-MJMAINB-31" x="0" y="0"></use>
 <use transform="scale(0.707)" xlink:href="#E1-MJMATHI-54" x="813" y="583"></use>
 <use xlink:href="#E1-MJMAIN-28" x="1173" y="0"></use>
 <use xlink:href="#E1-MJMATHBI-75" x="1563" y="0"></use>
 <use xlink:href="#E1-MJMAIN-2299" x="2466" y="0"></use>
 <use xlink:href="#E1-MJMATHBI-76" x="3467" y="0"></use>
 <use xlink:href="#E1-MJMAIN-29" x="4035" y="0"></use>
 <use xlink:href="#E1-MJMAIN-3D" x="4702" y="0"></use>
<g transform="translate(5758,0)">
 <use xlink:href="#E1-MJMATHBI-75" x="0" y="0"></use>
 <use transform="scale(0.707)" xlink:href="#E1-MJMATHI-54" x="963" y="583"></use>
</g>
 <use xlink:href="#E1-MJMATHBI-76" x="7038" y="0"></use>
</g>
</svg>