<svg xmlns:xlink="http://www.w3.org/1999/xlink" width="87.808ex" height="11.343ex" style="font-size: 15px; vertical-align: -7.005ex;" viewBox="0 -1867.7 37806 4883.6" role="img" focusable="false" xmlns="http://www.w3.org/2000/svg">
<defs>
<path stroke-width="1" id="E1-MJMATHI-64" d="M366 683Q367 683 438 688T511 694Q523 694 523 686Q523 679 450 384T375 83T374 68Q374 26 402 26Q411 27 422 35Q443 55 463 131Q469 151 473 152Q475 153 483 153H487H491Q506 153 506 145Q506 140 503 129Q490 79 473 48T445 8T417 -8Q409 -10 393 -10Q359 -10 336 5T306 36L300 51Q299 52 296 50Q294 48 292 46Q233 -10 172 -10Q117 -10 75 30T33 157Q33 205 53 255T101 341Q148 398 195 420T280 442Q336 442 364 400Q369 394 369 396Q370 400 396 505T424 616Q424 629 417 632T378 637H357Q351 643 351 645T353 664Q358 683 366 683ZM352 326Q329 405 277 405Q242 405 210 374T160 293Q131 214 119 129Q119 126 119 118T118 106Q118 61 136 44T179 26Q233 26 290 98L298 109L352 326Z"></path>
<path stroke-width="1" id="E1-MJMATHI-6C" d="M117 59Q117 26 142 26Q179 26 205 131Q211 151 215 152Q217 153 225 153H229Q238 153 241 153T246 151T248 144Q247 138 245 128T234 90T214 43T183 6T137 -11Q101 -11 70 11T38 85Q38 97 39 102L104 360Q167 615 167 623Q167 626 166 628T162 632T157 634T149 635T141 636T132 637T122 637Q112 637 109 637T101 638T95 641T94 647Q94 649 96 661Q101 680 107 682T179 688Q194 689 213 690T243 693T254 694Q266 694 266 686Q266 675 193 386T118 83Q118 81 118 75T117 65V59Z"></path>
<path stroke-width="1" id="E1-MJMAIN-3D" d="M56 347Q56 360 70 367H707Q722 359 722 347Q722 336 708 328L390 327H72Q56 332 56 347ZM56 153Q56 168 72 173H708Q722 163 722 153Q722 140 707 133H70Q56 140 56 153Z"></path>
<path stroke-width="1" id="E1-MJMAIN-74" d="M27 422Q80 426 109 478T141 600V615H181V431H316V385H181V241Q182 116 182 100T189 68Q203 29 238 29Q282 29 292 100Q293 108 293 146V181H333V146V134Q333 57 291 17Q264 -10 221 -10Q187 -10 162 2T124 33T105 68T98 100Q97 107 97 248V385H18V422H27Z"></path>
<path stroke-width="1" id="E1-MJMAIN-72" d="M36 46H50Q89 46 97 60V68Q97 77 97 91T98 122T98 161T98 203Q98 234 98 269T98 328L97 351Q94 370 83 376T38 385H20V408Q20 431 22 431L32 432Q42 433 60 434T96 436Q112 437 131 438T160 441T171 442H174V373Q213 441 271 441H277Q322 441 343 419T364 373Q364 352 351 337T313 322Q288 322 276 338T263 372Q263 381 265 388T270 400T273 405Q271 407 250 401Q234 393 226 386Q179 341 179 207V154Q179 141 179 127T179 101T180 81T180 66V61Q181 59 183 57T188 54T193 51T200 49T207 48T216 47T225 47T235 46T245 46H276V0H267Q249 3 140 3Q37 3 28 0H20V46H36Z"></path>
<path stroke-width="1" id="E1-MJMAIN-28" d="M94 250Q94 319 104 381T127 488T164 576T202 643T244 695T277 729T302 750H315H319Q333 750 333 741Q333 738 316 720T275 667T226 581T184 443T167 250T184 58T225 -81T274 -167T316 -220T333 -241Q333 -250 318 -250H315H302L274 -226Q180 -141 137 -14T94 250Z"></path>
<path stroke-width="1" id="E1-MJMAIN-2202" d="M202 508Q179 508 169 520T158 547Q158 557 164 577T185 624T230 675T301 710L333 715H345Q378 715 384 714Q447 703 489 661T549 568T566 457Q566 362 519 240T402 53Q321 -22 223 -22Q123 -22 73 56Q42 102 42 148V159Q42 276 129 370T322 465Q383 465 414 434T455 367L458 378Q478 461 478 515Q478 603 437 639T344 676Q266 676 223 612Q264 606 264 572Q264 547 246 528T202 508ZM430 306Q430 372 401 400T333 428Q270 428 222 382Q197 354 183 323T150 221Q132 149 132 116Q132 21 232 21Q244 21 250 22Q327 35 374 112Q389 137 409 196T430 306Z"></path>
<path stroke-width="1" id="E1-MJMATHI-41" d="M208 74Q208 50 254 46Q272 46 272 35Q272 34 270 22Q267 8 264 4T251 0Q249 0 239 0T205 1T141 2Q70 2 50 0H42Q35 7 35 11Q37 38 48 46H62Q132 49 164 96Q170 102 345 401T523 704Q530 716 547 716H555H572Q578 707 578 706L606 383Q634 60 636 57Q641 46 701 46Q726 46 726 36Q726 34 723 22Q720 7 718 4T704 0Q701 0 690 0T651 1T578 2Q484 2 455 0H443Q437 6 437 9T439 27Q443 40 445 43L449 46H469Q523 49 533 63L521 213H283L249 155Q208 86 208 74ZM516 260Q516 271 504 416T490 562L463 519Q447 492 400 412L310 260L413 259Q516 259 516 260Z"></path>
<path stroke-width="1" id="E1-MJMAIN-32" d="M109 429Q82 429 66 447T50 491Q50 562 103 614T235 666Q326 666 387 610T449 465Q449 422 429 383T381 315T301 241Q265 210 201 149L142 93L218 92Q375 92 385 97Q392 99 409 186V189H449V186Q448 183 436 95T421 3V0H50V19V31Q50 38 56 46T86 81Q115 113 136 137Q145 147 170 174T204 211T233 244T261 278T284 308T305 340T320 369T333 401T340 431T343 464Q343 527 309 573T212 619Q179 619 154 602T119 569T109 550Q109 549 114 549Q132 549 151 535T170 489Q170 464 154 447T109 429Z"></path>
<path stroke-width="1" id="E1-MJMATHI-54" d="M40 437Q21 437 21 445Q21 450 37 501T71 602L88 651Q93 669 101 677H569H659Q691 677 697 676T704 667Q704 661 687 553T668 444Q668 437 649 437Q640 437 637 437T631 442L629 445Q629 451 635 490T641 551Q641 586 628 604T573 629Q568 630 515 631Q469 631 457 630T439 622Q438 621 368 343T298 60Q298 48 386 46Q418 46 427 45T436 36Q436 31 433 22Q429 4 424 1L422 0Q419 0 415 0Q410 0 363 1T228 2Q99 2 64 0H49Q43 6 43 9T45 27Q49 40 55 46H83H94Q174 46 189 55Q190 56 191 56Q196 59 201 76T241 233Q258 301 269 344Q339 619 339 625Q339 630 310 630H279Q212 630 191 624Q146 614 121 583T67 467Q60 445 57 441T43 437H40Z"></path>
<path stroke-width="1" id="E1-MJMAIN-29" d="M60 749L64 750Q69 750 74 750H86L114 726Q208 641 251 514T294 250Q294 182 284 119T261 12T224 -76T186 -143T145 -194T113 -227T90 -246Q87 -249 86 -250H74Q66 -250 63 -250T58 -247T55 -238Q56 -237 66 -225Q221 -64 221 250T66 725Q56 737 55 738Q55 746 60 749Z"></path>
<path stroke-width="1" id="E1-MJSZ4-28" d="M758 -1237T758 -1240T752 -1249H736Q718 -1249 717 -1248Q711 -1245 672 -1199Q237 -706 237 251T672 1700Q697 1730 716 1749Q718 1750 735 1750H752Q758 1744 758 1741Q758 1737 740 1713T689 1644T619 1537T540 1380T463 1176Q348 802 348 251Q348 -242 441 -599T744 -1218Q758 -1237 758 -1240Z"></path>
<path stroke-width="1" id="E1-MJSZ4-29" d="M33 1741Q33 1750 51 1750H60H65Q73 1750 81 1743T119 1700Q554 1207 554 251Q554 -707 119 -1199Q76 -1250 66 -1250Q65 -1250 62 -1250T56 -1249Q55 -1249 53 -1249T49 -1250Q33 -1250 33 -1239Q33 -1236 50 -1214T98 -1150T163 -1052T238 -910T311 -727Q443 -335 443 251Q443 402 436 532T405 831T339 1142T224 1438T50 1716Q33 1737 33 1741Z"></path>
<path stroke-width="1" id="E1-MJMATHI-57" d="M436 683Q450 683 486 682T553 680Q604 680 638 681T677 682Q695 682 695 674Q695 670 692 659Q687 641 683 639T661 637Q636 636 621 632T600 624T597 615Q597 603 613 377T629 138L631 141Q633 144 637 151T649 170T666 200T690 241T720 295T759 362Q863 546 877 572T892 604Q892 619 873 628T831 637Q817 637 817 647Q817 650 819 660Q823 676 825 679T839 682Q842 682 856 682T895 682T949 681Q1015 681 1034 683Q1048 683 1048 672Q1048 666 1045 655T1038 640T1028 637Q1006 637 988 631T958 617T939 600T927 584L923 578L754 282Q586 -14 585 -15Q579 -22 561 -22Q546 -22 542 -17Q539 -14 523 229T506 480L494 462Q472 425 366 239Q222 -13 220 -15T215 -19Q210 -22 197 -22Q178 -22 176 -15Q176 -12 154 304T131 622Q129 631 121 633T82 637H58Q51 644 51 648Q52 671 64 683H76Q118 680 176 680Q301 680 313 683H323Q329 677 329 674T327 656Q322 641 318 637H297Q236 634 232 620Q262 160 266 136L501 550L499 587Q496 629 489 632Q483 636 447 637Q428 637 422 639T416 648Q416 650 418 660Q419 664 420 669T421 676T424 680T428 682T436 683Z"></path>
<path stroke-width="1" id="E1-MJMATHI-48" d="M228 637Q194 637 192 641Q191 643 191 649Q191 673 202 682Q204 683 219 683Q260 681 355 681Q389 681 418 681T463 682T483 682Q499 682 499 672Q499 670 497 658Q492 641 487 638H485Q483 638 480 638T473 638T464 637T455 637Q416 636 405 634T387 623Q384 619 355 500Q348 474 340 442T328 395L324 380Q324 378 469 378H614L615 381Q615 384 646 504Q674 619 674 627T617 637Q594 637 587 639T580 648Q580 650 582 660Q586 677 588 679T604 682Q609 682 646 681T740 680Q802 680 835 681T871 682Q888 682 888 672Q888 645 876 638H874Q872 638 869 638T862 638T853 637T844 637Q805 636 794 634T776 623Q773 618 704 340T634 58Q634 51 638 51Q646 48 692 46H723Q729 38 729 37T726 19Q722 6 716 0H701Q664 2 567 2Q533 2 504 2T458 2T437 1Q420 1 420 10Q420 15 423 24Q428 43 433 45Q437 46 448 46H454Q481 46 514 49Q520 50 522 50T528 55T534 64T540 82T547 110T558 153Q565 181 569 198Q602 330 602 331T457 332H312L279 197Q245 63 245 58Q245 51 253 49T303 46H334Q340 38 340 37T337 19Q333 6 327 0H312Q275 2 178 2Q144 2 115 2T69 2T48 1Q31 1 31 10Q31 12 34 24Q39 43 44 45Q48 46 59 46H65Q92 46 125 49Q139 52 144 61Q147 65 216 339T285 628Q285 635 228 637Z"></path>
<path stroke-width="1" id="E1-MJMAIN-31" d="M213 578L200 573Q186 568 160 563T102 556H83V602H102Q149 604 189 617T245 641T273 663Q275 666 285 666Q294 666 302 660V361L303 61Q310 54 315 52T339 48T401 46H427V0H416Q395 3 257 3Q121 3 100 0H88V46H114Q136 46 152 46T177 47T193 50T201 52T207 57T213 61V578Z"></path>
<path stroke-width="1" id="E1-MJMAIN-2B" d="M56 237T56 250T70 270H369V420L370 570Q380 583 389 583Q402 583 409 568V270H707Q722 262 722 250T707 230H409V-68Q401 -82 391 -82H389H387Q375 -82 369 -68V230H70Q56 237 56 250Z"></path>
<path stroke-width="1" id="E1-MJSZ4-E152" d="M-24 327L-18 333H-1Q11 333 15 333T22 329T27 322T35 308T54 284Q115 203 225 162T441 120Q454 120 457 117T460 95V60V28Q460 8 457 4T442 0Q355 0 260 36Q75 118 -16 278L-24 292V327Z"></path>
<path stroke-width="1" id="E1-MJSZ4-E153" d="M-10 60V95Q-10 113 -7 116T9 120Q151 120 250 171T396 284Q404 293 412 305T424 324T431 331Q433 333 451 333H468L474 327V292L466 278Q375 118 190 36Q95 0 8 0Q-5 0 -7 3T-10 24V60Z"></path>
<path stroke-width="1" id="E1-MJSZ4-E151" d="M-10 60Q-10 104 -10 111T-5 118Q-1 120 10 120Q96 120 190 84Q375 2 466 -158L474 -172V-207L468 -213H451H447Q437 -213 434 -213T428 -209T423 -202T414 -187T396 -163Q331 -82 224 -41T9 0Q-4 0 -7 3T-10 25V60Z"></path>
<path stroke-width="1" id="E1-MJSZ4-E150" d="M-18 -213L-24 -207V-172L-16 -158Q75 2 260 84Q334 113 415 119Q418 119 427 119T440 120Q454 120 457 117T460 98V60V25Q460 7 457 4T441 0Q308 0 193 -55T25 -205Q21 -211 18 -212T-1 -213H-18Z"></path>
<path stroke-width="1" id="E1-MJSZ4-E154" d="M-10 0V120H410V0H-10Z"></path>
<path stroke-width="1" id="E1-MJMATHBI-62" d="M220 -8Q142 -8 94 35T45 155V167Q45 187 52 218T104 426L153 622H149Q148 622 144 622T134 623T122 624T111 624T101 624T96 625Q84 628 84 642Q84 647 88 661T94 679Q98 684 109 685T185 690Q258 694 272 694Q289 694 293 679Q293 676 263 553L232 429L244 434Q256 440 281 446T331 452Q417 452 465 407T513 285Q513 235 494 184T439 90T346 20T220 -8ZM385 337Q385 400 318 400Q269 400 226 360Q214 349 211 341T191 268Q162 149 162 113Q162 44 226 44Q269 44 299 76T339 135T362 215Q364 222 365 226Q385 303 385 337Z"></path>
<path stroke-width="1" id="E1-MJMAINB-31" d="M481 0L294 3Q136 3 109 0H96V62H227V304Q227 546 225 546Q169 529 97 529H80V591H97Q231 591 308 647L319 655H333Q355 655 359 644Q361 640 361 351V62H494V0H481Z"></path>
</defs>
<g stroke="currentColor" fill="currentColor" stroke-width="0" transform="matrix(1 0 0 -1 0 0)">
 <use xlink:href="#E1-MJMATHI-64" x="0" y="0"></use>
 <use xlink:href="#E1-MJMATHI-6C" x="523" y="0"></use>
 <use xlink:href="#E1-MJMAIN-3D" x="1099" y="0"></use>
<g transform="translate(2156,0)">
 <use xlink:href="#E1-MJMAIN-74"></use>
 <use xlink:href="#E1-MJMAIN-72" x="389" y="0"></use>
</g>
<g transform="translate(3104,0)">
 <use xlink:href="#E1-MJSZ4-28"></use>
<g transform="translate(792,0)">
<g transform="translate(120,0)">
<rect stroke="none" width="1891" height="60" x="0" y="220"></rect>
<g transform="translate(512,676)">
 <use xlink:href="#E1-MJMAIN-2202" x="0" y="0"></use>
 <use xlink:href="#E1-MJMATHI-6C" x="567" y="0"></use>
</g>
<g transform="translate(60,-737)">
 <use xlink:href="#E1-MJMAIN-2202" x="0" y="0"></use>
<g transform="translate(567,0)">
 <use xlink:href="#E1-MJMATHI-41" x="0" y="0"></use>
 <use transform="scale(0.707)" xlink:href="#E1-MJMAIN-32" x="1061" y="-213"></use>
</g>
</g>
</g>
 <use transform="scale(0.707)" xlink:href="#E1-MJMATHI-54" x="3014" y="1583"></use>
 <use xlink:href="#E1-MJMATHI-64" x="2730" y="0"></use>
<g transform="translate(3253,0)">
 <use xlink:href="#E1-MJMATHI-41" x="0" y="0"></use>
 <use transform="scale(0.707)" xlink:href="#E1-MJMAIN-32" x="1061" y="-213"></use>
</g>
</g>
 <use xlink:href="#E1-MJSZ4-29" x="5250" y="0"></use>
</g>
 <use xlink:href="#E1-MJMAIN-3D" x="9425" y="0"></use>
<g transform="translate(10481,0)">
 <use xlink:href="#E1-MJMAIN-74"></use>
 <use xlink:href="#E1-MJMAIN-72" x="389" y="0"></use>
</g>
<g transform="translate(11430,0)">
 <use xlink:href="#E1-MJSZ4-28"></use>
<g transform="translate(792,0)">
<g transform="translate(120,0)">
<rect stroke="none" width="1891" height="60" x="0" y="220"></rect>
<g transform="translate(512,676)">
 <use xlink:href="#E1-MJMAIN-2202" x="0" y="0"></use>
 <use xlink:href="#E1-MJMATHI-6C" x="567" y="0"></use>
</g>
<g transform="translate(60,-737)">
 <use xlink:href="#E1-MJMAIN-2202" x="0" y="0"></use>
<g transform="translate(567,0)">
 <use xlink:href="#E1-MJMATHI-41" x="0" y="0"></use>
 <use transform="scale(0.707)" xlink:href="#E1-MJMAIN-32" x="1061" y="-213"></use>
</g>
</g>
</g>
 <use transform="scale(0.707)" xlink:href="#E1-MJMATHI-54" x="3014" y="1583"></use>
 <use xlink:href="#E1-MJMATHI-64" x="2730" y="0"></use>
<g transform="translate(3253,0)">
 <use xlink:href="#E1-MJMATHI-57" x="0" y="0"></use>
 <use transform="scale(0.707)" xlink:href="#E1-MJMAIN-32" x="1335" y="-213"></use>
</g>
<g transform="translate(4651,0)">
 <use xlink:href="#E1-MJMATHI-48" x="0" y="0"></use>
 <use transform="scale(0.707)" xlink:href="#E1-MJMAIN-31" x="1175" y="-213"></use>
</g>
</g>
 <use xlink:href="#E1-MJSZ4-29" x="6729" y="0"></use>
</g>
 <use xlink:href="#E1-MJMAIN-2B" x="19175" y="0"></use>
<g transform="translate(20175,0)">
 <use xlink:href="#E1-MJMAIN-74"></use>
 <use xlink:href="#E1-MJMAIN-72" x="389" y="0"></use>
<g transform="translate(948,0)">
 <use xlink:href="#E1-MJSZ4-28"></use>
<g transform="translate(792,0)">
<g transform="translate(120,0)">
<rect stroke="none" width="1891" height="60" x="0" y="220"></rect>
<g transform="translate(512,676)">
 <use xlink:href="#E1-MJMAIN-2202" x="0" y="0"></use>
 <use xlink:href="#E1-MJMATHI-6C" x="567" y="0"></use>
</g>
<g transform="translate(60,-737)">
 <use xlink:href="#E1-MJMAIN-2202" x="0" y="0"></use>
<g transform="translate(567,0)">
 <use xlink:href="#E1-MJMATHI-41" x="0" y="0"></use>
 <use transform="scale(0.707)" xlink:href="#E1-MJMAIN-32" x="1061" y="-213"></use>
</g>
</g>
</g>
 <use transform="scale(0.707)" xlink:href="#E1-MJMATHI-54" x="3014" y="1583"></use>
<g transform="translate(2730,0)">
 <use xlink:href="#E1-MJMATHI-57" x="0" y="0"></use>
 <use transform="scale(0.707)" xlink:href="#E1-MJMAIN-32" x="1335" y="-213"></use>
</g>
 <use xlink:href="#E1-MJMATHI-64" x="4128" y="0"></use>
<g transform="translate(4651,0)">
 <use xlink:href="#E1-MJMATHI-48" x="0" y="0"></use>
 <use transform="scale(0.707)" xlink:href="#E1-MJMAIN-31" x="1175" y="-213"></use>
</g>
</g>
 <use xlink:href="#E1-MJSZ4-29" x="6729" y="0"></use>
</g>
<g transform="translate(12,-1765)">
 <use xlink:href="#E1-MJSZ4-E152" x="23" y="0"></use>
<g transform="translate(558.6659763650712,0) scale(7.859576459481178,1)">
 <use xlink:href="#E1-MJSZ4-E154"></use>
</g>
<g transform="translate(3785,0)">
 <use xlink:href="#E1-MJSZ4-E151"></use>
 <use xlink:href="#E1-MJSZ4-E150" x="450" y="0"></use>
</g>
<g transform="translate(4760.688089347166,0) scale(7.859576459481178,1)">
 <use xlink:href="#E1-MJSZ4-E154"></use>
</g>
 <use xlink:href="#E1-MJSZ4-E153" x="7996" y="0"></use>
</g>
<g transform="translate(3765,-2638)">
 <use transform="scale(0.707)" xlink:href="#E1-MJMATHI-64" x="0" y="0"></use>
<g transform="translate(370,0)">
 <use transform="scale(0.707)" xlink:href="#E1-MJMATHI-6C" x="0" y="0"></use>
 <use transform="scale(0.574)" xlink:href="#E1-MJMAIN-32" x="367" y="-243"></use>
</g>
</g>
</g>
 <use xlink:href="#E1-MJMAIN-2B" x="28869" y="0"></use>
<g transform="translate(29869,0)">
 <use xlink:href="#E1-MJMAIN-74"></use>
 <use xlink:href="#E1-MJMAIN-72" x="389" y="0"></use>
</g>
<g transform="translate(30818,0)">
 <use xlink:href="#E1-MJSZ4-28"></use>
<g transform="translate(792,0)">
<g transform="translate(120,0)">
<rect stroke="none" width="1891" height="60" x="0" y="220"></rect>
<g transform="translate(512,676)">
 <use xlink:href="#E1-MJMAIN-2202" x="0" y="0"></use>
 <use xlink:href="#E1-MJMATHI-6C" x="567" y="0"></use>
</g>
<g transform="translate(60,-737)">
 <use xlink:href="#E1-MJMAIN-2202" x="0" y="0"></use>
<g transform="translate(567,0)">
 <use xlink:href="#E1-MJMATHI-41" x="0" y="0"></use>
 <use transform="scale(0.707)" xlink:href="#E1-MJMAIN-32" x="1061" y="-213"></use>
</g>
</g>
</g>
 <use transform="scale(0.707)" xlink:href="#E1-MJMATHI-54" x="3014" y="1583"></use>
 <use xlink:href="#E1-MJMATHI-64" x="2730" y="0"></use>
<g transform="translate(3253,0)">
 <use xlink:href="#E1-MJMATHBI-62" x="0" y="0"></use>
 <use transform="scale(0.707)" xlink:href="#E1-MJMAIN-32" x="737" y="-213"></use>
</g>
<g transform="translate(4228,0)">
 <use xlink:href="#E1-MJMAINB-31" x="0" y="0"></use>
 <use transform="scale(0.707)" xlink:href="#E1-MJMATHI-54" x="813" y="583"></use>
</g>
</g>
 <use xlink:href="#E1-MJSZ4-29" x="6195" y="0"></use>
</g>
</g>
</svg>