<svg xmlns:xlink="http://www.w3.org/1999/xlink" width="11.679ex" height="2.676ex" style="font-size: 15px; vertical-align: -0.338ex;" viewBox="0 -1006.6 5028.4 1152.1" role="img" focusable="false" xmlns="http://www.w3.org/2000/svg">
<defs>
<path stroke-width="1" id="E1-MJMATHBI-75" d="M189 389Q189 397 187 399T176 401Q150 399 126 372T89 304Q84 288 81 285T61 282H55H44Q24 282 24 296Q24 307 35 331T65 383T117 431T187 452Q237 452 272 427T308 362Q308 347 273 254T238 111Q238 43 291 43Q319 43 344 58T380 86T391 103T426 247T464 396Q472 414 491 429T535 444T574 429T588 397Q588 390 570 315T534 168L516 97Q514 89 514 72Q514 42 531 42Q544 42 556 56Q574 76 589 134Q594 155 598 158T619 162H624H635Q655 162 655 148Q654 142 652 132T638 94T614 47T575 9T520 -8Q509 -8 498 -7T478 -3T461 2T446 8T434 16T424 23T416 29T410 35T406 39L405 41L397 34Q347 -7 288 -7H281Q148 -7 122 78Q116 95 116 125V136Q116 174 152 273T189 389Z"></path>
<path stroke-width="1" id="E1-MJMATHI-54" d="M40 437Q21 437 21 445Q21 450 37 501T71 602L88 651Q93 669 101 677H569H659Q691 677 697 676T704 667Q704 661 687 553T668 444Q668 437 649 437Q640 437 637 437T631 442L629 445Q629 451 635 490T641 551Q641 586 628 604T573 629Q568 630 515 631Q469 631 457 630T439 622Q438 621 368 343T298 60Q298 48 386 46Q418 46 427 45T436 36Q436 31 433 22Q429 4 424 1L422 0Q419 0 415 0Q410 0 363 1T228 2Q99 2 64 0H49Q43 6 43 9T45 27Q49 40 55 46H83H94Q174 46 189 55Q190 56 191 56Q196 59 201 76T241 233Q258 301 269 344Q339 619 339 625Q339 630 310 630H279Q212 630 191 624Q146 614 121 583T67 467Q60 445 57 441T43 437H40Z"></path>
<path stroke-width="1" id="E1-MJMATHBI-76" d="M380 367Q380 397 406 425T465 453Q493 453 516 430T540 357Q540 314 524 250T467 115T373 13Q338 -8 292 -8Q218 -8 167 23T116 129Q116 178 152 275T189 388Q189 396 187 398T176 401Q148 398 125 372T89 304Q84 288 81 285T61 282H55H44Q24 282 24 296Q24 306 34 330T64 382T116 431T189 452Q231 452 269 429T308 362Q308 346 273 255T238 114Q238 43 306 43Q336 43 363 65T407 118T437 182T456 239T462 268Q462 290 417 315Q380 335 380 367Z"></path>
<path stroke-width="1" id="E1-MJMAIN-3D" d="M56 347Q56 360 70 367H707Q722 359 722 347Q722 336 708 328L390 327H72Q56 332 56 347ZM56 153Q56 168 72 173H708Q722 163 722 153Q722 140 707 133H70Q56 140 56 153Z"></path>
</defs>
<g stroke="currentColor" fill="currentColor" stroke-width="0" transform="matrix(1 0 0 -1 0 0)">
 <use xlink:href="#E1-MJMATHBI-75" x="0" y="0"></use>
 <use transform="scale(0.707)" xlink:href="#E1-MJMATHI-54" x="963" y="583"></use>
 <use xlink:href="#E1-MJMATHBI-76" x="1279" y="0"></use>
 <use xlink:href="#E1-MJMAIN-3D" x="2124" y="0"></use>
<g transform="translate(3181,0)">
 <use xlink:href="#E1-MJMATHBI-76" x="0" y="0"></use>
 <use transform="scale(0.707)" xlink:href="#E1-MJMATHI-54" x="802" y="583"></use>
</g>
 <use xlink:href="#E1-MJMATHBI-75" x="4346" y="0"></use>
</g>
</svg>