<svg xmlns:xlink="http://www.w3.org/1999/xlink" width="27.195ex" height="6.176ex" style="font-size: 15px; vertical-align: -2.671ex;" viewBox="0 -1508.9 11709.1 2659.1" role="img" focusable="false" xmlns="http://www.w3.org/2000/svg">
<defs>
<path stroke-width="1" id="E1-MJMAIN-2202" d="M202 508Q179 508 169 520T158 547Q158 557 164 577T185 624T230 675T301 710L333 715H345Q378 715 384 714Q447 703 489 661T549 568T566 457Q566 362 519 240T402 53Q321 -22 223 -22Q123 -22 73 56Q42 102 42 148V159Q42 276 129 370T322 465Q383 465 414 434T455 367L458 378Q478 461 478 515Q478 603 437 639T344 676Q266 676 223 612Q264 606 264 572Q264 547 246 528T202 508ZM430 306Q430 372 401 400T333 428Q270 428 222 382Q197 354 183 323T150 221Q132 149 132 116Q132 21 232 21Q244 21 250 22Q327 35 374 112Q389 137 409 196T430 306Z"></path>
<path stroke-width="1" id="E1-MJMATHI-6C" d="M117 59Q117 26 142 26Q179 26 205 131Q211 151 215 152Q217 153 225 153H229Q238 153 241 153T246 151T248 144Q247 138 245 128T234 90T214 43T183 6T137 -11Q101 -11 70 11T38 85Q38 97 39 102L104 360Q167 615 167 623Q167 626 166 628T162 632T157 634T149 635T141 636T132 637T122 637Q112 637 109 637T101 638T95 641T94 647Q94 649 96 661Q101 680 107 682T179 688Q194 689 213 690T243 693T254 694Q266 694 266 686Q266 675 193 386T118 83Q118 81 118 75T117 65V59Z"></path>
<path stroke-width="1" id="E1-MJMATHBI-61" d="M222 -8Q140 -8 89 34T38 158Q38 191 48 227Q72 329 151 390T327 452Q361 452 385 443T421 425T433 416H434L441 421Q448 426 460 430T486 435Q509 435 523 422T538 386Q538 380 522 315T488 179T467 93Q466 87 466 72Q466 42 483 42Q505 42 521 75Q531 94 541 134Q546 155 550 158T571 162H576H587Q607 162 607 148Q606 142 604 132T590 94T566 47T528 9T474 -8Q396 -8 358 40Q295 -8 222 -8ZM404 351Q383 401 324 401Q300 401 270 385T221 330Q206 296 186 220Q166 136 166 106Q166 72 184 58T228 43Q256 43 284 57T328 84T343 103Q343 106 374 228L404 351Z"></path>
<path stroke-width="1" id="E1-MJMAIN-32" d="M109 429Q82 429 66 447T50 491Q50 562 103 614T235 666Q326 666 387 610T449 465Q449 422 429 383T381 315T301 241Q265 210 201 149L142 93L218 92Q375 92 385 97Q392 99 409 186V189H449V186Q448 183 436 95T421 3V0H50V19V31Q50 38 56 46T86 81Q115 113 136 137Q145 147 170 174T204 211T233 244T261 278T284 308T305 340T320 369T333 401T340 431T343 464Q343 527 309 573T212 619Q179 619 154 602T119 569T109 550Q109 549 114 549Q132 549 151 535T170 489Q170 464 154 447T109 429Z"></path>
<path stroke-width="1" id="E1-MJMAIN-2C" d="M78 35T78 60T94 103T137 121Q165 121 187 96T210 8Q210 -27 201 -60T180 -117T154 -158T130 -185T117 -194Q113 -194 104 -185T95 -172Q95 -168 106 -156T131 -126T157 -76T173 -3V9L172 8Q170 7 167 6T161 3T152 1T140 0Q113 0 96 17Z"></path>
<path stroke-width="1" id="E1-MJMATHI-69" d="M184 600Q184 624 203 642T247 661Q265 661 277 649T290 619Q290 596 270 577T226 557Q211 557 198 567T184 600ZM21 287Q21 295 30 318T54 369T98 420T158 442Q197 442 223 419T250 357Q250 340 236 301T196 196T154 83Q149 61 149 51Q149 26 166 26Q175 26 185 29T208 43T235 78T260 137Q263 149 265 151T282 153Q302 153 302 143Q302 135 293 112T268 61T223 11T161 -11Q129 -11 102 10T74 74Q74 91 79 106T122 220Q160 321 166 341T173 380Q173 404 156 404H154Q124 404 99 371T61 287Q60 286 59 284T58 281T56 279T53 278T49 278T41 278H27Q21 284 21 287Z"></path>
<path stroke-width="1" id="E1-MJMAIN-3D" d="M56 347Q56 360 70 367H707Q722 359 722 347Q722 336 708 328L390 327H72Q56 332 56 347ZM56 153Q56 168 72 173H708Q722 163 722 153Q722 140 707 133H70Q56 140 56 153Z"></path>
<path stroke-width="1" id="E1-MJMAIN-73" d="M295 316Q295 356 268 385T190 414Q154 414 128 401Q98 382 98 349Q97 344 98 336T114 312T157 287Q175 282 201 278T245 269T277 256Q294 248 310 236T342 195T359 133Q359 71 321 31T198 -10H190Q138 -10 94 26L86 19L77 10Q71 4 65 -1L54 -11H46H42Q39 -11 33 -5V74V132Q33 153 35 157T45 162H54Q66 162 70 158T75 146T82 119T101 77Q136 26 198 26Q295 26 295 104Q295 133 277 151Q257 175 194 187T111 210Q75 227 54 256T33 318Q33 357 50 384T93 424T143 442T187 447H198Q238 447 268 432L283 424L292 431Q302 440 314 448H322H326Q329 448 335 442V310L329 304H301Q295 310 295 316Z"></path>
<path stroke-width="1" id="E1-MJMAIN-6F" d="M28 214Q28 309 93 378T250 448Q340 448 405 380T471 215Q471 120 407 55T250 -10Q153 -10 91 57T28 214ZM250 30Q372 30 372 193V225V250Q372 272 371 288T364 326T348 362T317 390T268 410Q263 411 252 411Q222 411 195 399Q152 377 139 338T126 246V226Q126 130 145 91Q177 30 250 30Z"></path>
<path stroke-width="1" id="E1-MJMAIN-66" d="M273 0Q255 3 146 3Q43 3 34 0H26V46H42Q70 46 91 49Q99 52 103 60Q104 62 104 224V385H33V431H104V497L105 564L107 574Q126 639 171 668T266 704Q267 704 275 704T289 705Q330 702 351 679T372 627Q372 604 358 590T321 576T284 590T270 627Q270 647 288 667H284Q280 668 273 668Q245 668 223 647T189 592Q183 572 182 497V431H293V385H185V225Q185 63 186 61T189 57T194 54T199 51T206 49T213 48T222 47T231 47T241 46T251 46H282V0H273Z"></path>
<path stroke-width="1" id="E1-MJMAIN-74" d="M27 422Q80 426 109 478T141 600V615H181V431H316V385H181V241Q182 116 182 100T189 68Q203 29 238 29Q282 29 292 100Q293 108 293 146V181H333V146V134Q333 57 291 17Q264 -10 221 -10Q187 -10 162 2T124 33T105 68T98 100Q97 107 97 248V385H18V422H27Z"></path>
<path stroke-width="1" id="E1-MJMAIN-6D" d="M41 46H55Q94 46 102 60V68Q102 77 102 91T102 122T103 161T103 203Q103 234 103 269T102 328V351Q99 370 88 376T43 385H25V408Q25 431 27 431L37 432Q47 433 65 434T102 436Q119 437 138 438T167 441T178 442H181V402Q181 364 182 364T187 369T199 384T218 402T247 421T285 437Q305 442 336 442Q351 442 364 440T387 434T406 426T421 417T432 406T441 395T448 384T452 374T455 366L457 361L460 365Q463 369 466 373T475 384T488 397T503 410T523 422T546 432T572 439T603 442Q729 442 740 329Q741 322 741 190V104Q741 66 743 59T754 49Q775 46 803 46H819V0H811L788 1Q764 2 737 2T699 3Q596 3 587 0H579V46H595Q656 46 656 62Q657 64 657 200Q656 335 655 343Q649 371 635 385T611 402T585 404Q540 404 506 370Q479 343 472 315T464 232V168V108Q464 78 465 68T468 55T477 49Q498 46 526 46H542V0H534L510 1Q487 2 460 2T422 3Q319 3 310 0H302V46H318Q379 46 379 62Q380 64 380 200Q379 335 378 343Q372 371 358 385T334 402T308 404Q263 404 229 370Q202 343 195 315T187 232V168V108Q187 78 188 68T191 55T200 49Q221 46 249 46H265V0H257L234 1Q210 2 183 2T145 3Q42 3 33 0H25V46H41Z"></path>
<path stroke-width="1" id="E1-MJMAIN-61" d="M137 305T115 305T78 320T63 359Q63 394 97 421T218 448Q291 448 336 416T396 340Q401 326 401 309T402 194V124Q402 76 407 58T428 40Q443 40 448 56T453 109V145H493V106Q492 66 490 59Q481 29 455 12T400 -6T353 12T329 54V58L327 55Q325 52 322 49T314 40T302 29T287 17T269 6T247 -2T221 -8T190 -11Q130 -11 82 20T34 107Q34 128 41 147T68 188T116 225T194 253T304 268H318V290Q318 324 312 340Q290 411 215 411Q197 411 181 410T156 406T148 403Q170 388 170 359Q170 334 154 320ZM126 106Q126 75 150 51T209 26Q247 26 276 49T315 109Q317 116 318 175Q318 233 317 233Q309 233 296 232T251 223T193 203T147 166T126 106Z"></path>
<path stroke-width="1" id="E1-MJMAIN-78" d="M201 0Q189 3 102 3Q26 3 17 0H11V46H25Q48 47 67 52T96 61T121 78T139 96T160 122T180 150L226 210L168 288Q159 301 149 315T133 336T122 351T113 363T107 370T100 376T94 379T88 381T80 383Q74 383 44 385H16V431H23Q59 429 126 429Q219 429 229 431H237V385Q201 381 201 369Q201 367 211 353T239 315T268 274L272 270L297 304Q329 345 329 358Q329 364 327 369T322 376T317 380T310 384L307 385H302V431H309Q324 428 408 428Q487 428 493 431H499V385H492Q443 385 411 368Q394 360 377 341T312 257L296 236L358 151Q424 61 429 57T446 50Q464 46 499 46H516V0H510H502Q494 1 482 1T457 2T432 2T414 3Q403 3 377 3T327 1L304 0H295V46H298Q309 46 320 51T331 63Q331 65 291 120L250 175Q249 174 219 133T185 88Q181 83 181 74Q181 63 188 55T206 46Q208 46 208 23V0H201Z"></path>
<path stroke-width="1" id="E1-MJMAIN-28" d="M94 250Q94 319 104 381T127 488T164 576T202 643T244 695T277 729T302 750H315H319Q333 750 333 741Q333 738 316 720T275 667T226 581T184 443T167 250T184 58T225 -81T274 -167T316 -220T333 -241Q333 -250 318 -250H315H302L274 -226Q180 -141 137 -14T94 250Z"></path>
<path stroke-width="1" id="E1-MJMAIN-29" d="M60 749L64 750Q69 750 74 750H86L114 726Q208 641 251 514T294 250Q294 182 284 119T261 12T224 -76T186 -143T145 -194T113 -227T90 -246Q87 -249 86 -250H74Q66 -250 63 -250T58 -247T55 -238Q56 -237 66 -225Q221 -64 221 250T66 725Q56 737 55 738Q55 746 60 749Z"></path>
<path stroke-width="1" id="E1-MJMAIN-2212" d="M84 237T84 250T98 270H679Q694 262 694 250T679 230H98Q84 237 84 250Z"></path>
<path stroke-width="1" id="E1-MJMATHBI-79" d="M206 -150Q240 -150 268 -134T314 -95T344 -48T362 -7T367 14Q339 -7 280 -7Q230 -7 195 5T144 39T122 79T115 122Q115 175 152 274T189 388Q189 396 187 398T176 401Q148 398 125 372T89 304Q84 288 81 285T61 282H55H44Q24 282 24 296Q24 306 34 329T64 381T116 431T188 452Q239 452 273 427T308 361Q308 347 273 253T237 109Q237 43 291 43T388 98Q388 99 425 246T463 396Q471 414 490 429T534 444T573 430T587 399Q587 386 537 186T483 -25Q461 -84 410 -126T296 -188Q248 -202 204 -202Q127 -202 96 -175T64 -114Q64 -82 86 -57T144 -31Q169 -31 184 -45T199 -83Q199 -89 198 -94T196 -104T193 -113T189 -120T184 -128T179 -134T173 -141T168 -147Q189 -150 206 -150Z"></path>
</defs>
<g stroke="currentColor" fill="currentColor" stroke-width="0" transform="matrix(1 0 0 -1 0 0)">
<g transform="translate(120,0)">
<rect stroke="none" width="2216" height="60" x="0" y="220"></rect>
<g transform="translate(675,676)">
 <use xlink:href="#E1-MJMAIN-2202" x="0" y="0"></use>
 <use xlink:href="#E1-MJMATHI-6C" x="567" y="0"></use>
</g>
<g transform="translate(60,-736)">
 <use xlink:href="#E1-MJMAIN-2202" x="0" y="0"></use>
<g transform="translate(567,0)">
 <use xlink:href="#E1-MJMATHBI-61" x="0" y="0"></use>
<g transform="translate(633,-150)">
 <use transform="scale(0.707)" xlink:href="#E1-MJMAIN-32" x="0" y="0"></use>
 <use transform="scale(0.707)" xlink:href="#E1-MJMAIN-2C" x="500" y="0"></use>
 <use transform="scale(0.707)" xlink:href="#E1-MJMATHI-69" x="779" y="0"></use>
</g>
</g>
</g>
</g>
 <use xlink:href="#E1-MJMAIN-3D" x="2733" y="0"></use>
<g transform="translate(3790,0)">
 <use xlink:href="#E1-MJMAIN-73"></use>
 <use xlink:href="#E1-MJMAIN-6F" x="394" y="0"></use>
 <use xlink:href="#E1-MJMAIN-66" x="895" y="0"></use>
 <use xlink:href="#E1-MJMAIN-74" x="1201" y="0"></use>
 <use xlink:href="#E1-MJMAIN-6D" x="1591" y="0"></use>
 <use xlink:href="#E1-MJMAIN-61" x="2424" y="0"></use>
 <use xlink:href="#E1-MJMAIN-78" x="2925" y="0"></use>
</g>
 <use xlink:href="#E1-MJMAIN-28" x="7243" y="0"></use>
<g transform="translate(7633,0)">
 <use xlink:href="#E1-MJMATHBI-61" x="0" y="0"></use>
<g transform="translate(633,-150)">
 <use transform="scale(0.707)" xlink:href="#E1-MJMAIN-32" x="0" y="0"></use>
 <use transform="scale(0.707)" xlink:href="#E1-MJMAIN-2C" x="500" y="0"></use>
 <use transform="scale(0.707)" xlink:href="#E1-MJMATHI-69" x="779" y="0"></use>
</g>
</g>
 <use xlink:href="#E1-MJMAIN-29" x="9161" y="0"></use>
 <use xlink:href="#E1-MJMAIN-2212" x="9773" y="0"></use>
<g transform="translate(10774,0)">
 <use xlink:href="#E1-MJMATHBI-79" x="0" y="0"></use>
 <use transform="scale(0.707)" xlink:href="#E1-MJMATHI-69" x="835" y="-213"></use>
</g>
</g>
</svg>