<svg xmlns:xlink="http://www.w3.org/1999/xlink" width="3.598ex" height="2.676ex" style="font-size: 15px; vertical-align: -0.338ex;" viewBox="0 -1006.6 1549.1 1152.1" role="img" focusable="false" xmlns="http://www.w3.org/2000/svg">
<defs>
<path stroke-width="1" id="E1-MJMATHI-58" d="M42 0H40Q26 0 26 11Q26 15 29 27Q33 41 36 43T55 46Q141 49 190 98Q200 108 306 224T411 342Q302 620 297 625Q288 636 234 637H206Q200 643 200 645T202 664Q206 677 212 683H226Q260 681 347 681Q380 681 408 681T453 682T473 682Q490 682 490 671Q490 670 488 658Q484 643 481 640T465 637Q434 634 411 620L488 426L541 485Q646 598 646 610Q646 628 622 635Q617 635 609 637Q594 637 594 648Q594 650 596 664Q600 677 606 683H618Q619 683 643 683T697 681T738 680Q828 680 837 683H845Q852 676 852 672Q850 647 840 637H824Q790 636 763 628T722 611T698 593L687 584Q687 585 592 480L505 384Q505 383 536 304T601 142T638 56Q648 47 699 46Q734 46 734 37Q734 35 732 23Q728 7 725 4T711 1Q708 1 678 1T589 2Q528 2 496 2T461 1Q444 1 444 10Q444 11 446 25Q448 35 450 39T455 44T464 46T480 47T506 54Q523 62 523 64Q522 64 476 181L429 299Q241 95 236 84Q232 76 232 72Q232 53 261 47Q262 47 267 47T273 46Q276 46 277 46T280 45T283 42T284 35Q284 26 282 19Q279 6 276 4T261 1Q258 1 243 1T201 2T142 2Q64 2 42 0Z"></path>
<path stroke-width="1" id="E1-MJMAIN-23" d="M56 347Q56 360 70 367H313L355 524Q394 676 401 686Q406 694 416 694Q434 694 436 676Q436 672 396 522Q355 374 355 369L354 367H543L585 524Q626 679 630 685Q636 694 646 694Q653 694 659 689T665 678Q665 668 626 522Q585 374 585 369L584 367H762Q777 359 777 347Q777 334 767 331T722 327H667H572L552 251L531 174Q531 173 647 173H720Q756 173 766 170T777 153T762 133H519L477 -24Q436 -179 432 -185Q426 -194 416 -194Q409 -194 403 -189T397 -177Q397 -167 436 -21Q477 125 477 131L478 133H289L247 -24Q206 -179 202 -185Q196 -194 186 -194Q179 -194 173 -189T167 -177Q167 -167 206 -21Q247 125 247 131L248 133H70Q56 140 56 153Q56 168 72 173H260L280 249L301 326Q301 327 186 327H72Q56 332 56 347ZM531 326Q531 327 437 327H342L322 251L301 174Q301 173 395 173H490L510 249L531 326Z"></path>
</defs>
<g stroke="currentColor" fill="currentColor" stroke-width="0" transform="matrix(1 0 0 -1 0 0)">
 <use xlink:href="#E1-MJMATHI-58" x="0" y="0"></use>
 <use transform="scale(0.707)" xlink:href="#E1-MJMAIN-23" x="1215" y="583"></use>
</g>
</svg>