<svg xmlns:xlink="http://www.w3.org/1999/xlink" width="3.717ex" height="2.509ex" style="font-size: 15px; vertical-align: -0.671ex;" viewBox="0 -791.3 1600.2 1080.4" role="img" focusable="false" xmlns="http://www.w3.org/2000/svg">
<defs>
<path stroke-width="1" id="E1-MJMATHBI-61" d="M222 -8Q140 -8 89 34T38 158Q38 191 48 227Q72 329 151 390T327 452Q361 452 385 443T421 425T433 416H434L441 421Q448 426 460 430T486 435Q509 435 523 422T538 386Q538 380 522 315T488 179T467 93Q466 87 466 72Q466 42 483 42Q505 42 521 75Q531 94 541 134Q546 155 550 158T571 162H576H587Q607 162 607 148Q606 142 604 132T590 94T566 47T528 9T474 -8Q396 -8 358 40Q295 -8 222 -8ZM404 351Q383 401 324 401Q300 401 270 385T221 330Q206 296 186 220Q166 136 166 106Q166 72 184 58T228 43Q256 43 284 57T328 84T343 103Q343 106 374 228L404 351Z"></path>
<path stroke-width="1" id="E1-MJMAIN-2C" d="M78 35T78 60T94 103T137 121Q165 121 187 96T210 8Q210 -27 201 -60T180 -117T154 -158T130 -185T117 -194Q113 -194 104 -185T95 -172Q95 -168 106 -156T131 -126T157 -76T173 -3V9L172 8Q170 7 167 6T161 3T152 1T140 0Q113 0 96 17Z"></path>
<path stroke-width="1" id="E1-MJMATHBI-62" d="M220 -8Q142 -8 94 35T45 155V167Q45 187 52 218T104 426L153 622H149Q148 622 144 622T134 623T122 624T111 624T101 624T96 625Q84 628 84 642Q84 647 88 661T94 679Q98 684 109 685T185 690Q258 694 272 694Q289 694 293 679Q293 676 263 553L232 429L244 434Q256 440 281 446T331 452Q417 452 465 407T513 285Q513 235 494 184T439 90T346 20T220 -8ZM385 337Q385 400 318 400Q269 400 226 360Q214 349 211 341T191 268Q162 149 162 113Q162 44 226 44Q269 44 299 76T339 135T362 215Q364 222 365 226Q385 303 385 337Z"></path>
</defs>
<g stroke="currentColor" fill="currentColor" stroke-width="0" transform="matrix(1 0 0 -1 0 0)">
 <use xlink:href="#E1-MJMATHBI-61" x="0" y="0"></use>
 <use xlink:href="#E1-MJMAIN-2C" x="633" y="0"></use>
 <use xlink:href="#E1-MJMATHBI-62" x="1078" y="0"></use>
</g>
</svg>