<svg xmlns:xlink="http://www.w3.org/1999/xlink" width="11.37ex" height="2.843ex" style="font-size: 15px; vertical-align: -0.838ex;" viewBox="0 -863.1 4895.4 1223.9" role="img" focusable="false" xmlns="http://www.w3.org/2000/svg">
<defs>
<path stroke-width="1" id="E1-MJMATHBI-68" d="M477 56Q477 48 479 46T490 43Q522 45 544 75T577 140Q582 156 585 159T605 162H611H622Q642 162 642 148Q642 138 632 114T602 62T550 13T478 -8Q429 -8 394 17T358 83Q358 95 395 199T433 350Q433 400 394 400H388H383Q335 400 291 363Q256 332 236 298Q233 293 202 170T169 40Q160 18 141 5T99 -8Q70 -8 58 9T45 39Q45 51 116 336L188 622H184Q183 622 179 622T169 623T157 624T146 624T136 624T131 625Q119 628 119 642Q119 647 123 661T129 679Q133 684 144 685T220 690Q293 694 307 694Q324 694 328 679Q328 672 294 540Q286 507 278 473T264 420L260 403Q260 400 269 408Q327 451 393 451H401H410Q425 451 439 450T476 442T515 424T544 391T556 337Q556 286 517 179T477 56Z"></path>
<path stroke-width="1" id="E1-MJMAIN-31" d="M213 578L200 573Q186 568 160 563T102 556H83V602H102Q149 604 189 617T245 641T273 663Q275 666 285 666Q294 666 302 660V361L303 61Q310 54 315 52T339 48T401 46H427V0H416Q395 3 257 3Q121 3 100 0H88V46H114Q136 46 152 46T177 47T193 50T201 52T207 57T213 61V578Z"></path>
<path stroke-width="1" id="E1-MJMAIN-3D" d="M56 347Q56 360 70 367H707Q722 359 722 347Q722 336 708 328L390 327H72Q56 332 56 347ZM56 153Q56 168 72 173H708Q722 163 722 153Q722 140 707 133H70Q56 140 56 153Z"></path>
<path stroke-width="1" id="E1-MJMATHI-3C3" d="M184 -11Q116 -11 74 34T31 147Q31 247 104 333T274 430Q275 431 414 431H552Q553 430 555 429T559 427T562 425T565 422T567 420T569 416T570 412T571 407T572 401Q572 357 507 357Q500 357 490 357T476 358H416L421 348Q439 310 439 263Q439 153 359 71T184 -11ZM361 278Q361 358 276 358Q152 358 115 184Q114 180 114 178Q106 141 106 117Q106 67 131 47T188 26Q242 26 287 73Q316 103 334 153T356 233T361 278Z"></path>
<path stroke-width="1" id="E1-MJMAIN-28" d="M94 250Q94 319 104 381T127 488T164 576T202 643T244 695T277 729T302 750H315H319Q333 750 333 741Q333 738 316 720T275 667T226 581T184 443T167 250T184 58T225 -81T274 -167T316 -220T333 -241Q333 -250 318 -250H315H302L274 -226Q180 -141 137 -14T94 250Z"></path>
<path stroke-width="1" id="E1-MJMATHBI-61" d="M222 -8Q140 -8 89 34T38 158Q38 191 48 227Q72 329 151 390T327 452Q361 452 385 443T421 425T433 416H434L441 421Q448 426 460 430T486 435Q509 435 523 422T538 386Q538 380 522 315T488 179T467 93Q466 87 466 72Q466 42 483 42Q505 42 521 75Q531 94 541 134Q546 155 550 158T571 162H576H587Q607 162 607 148Q606 142 604 132T590 94T566 47T528 9T474 -8Q396 -8 358 40Q295 -8 222 -8ZM404 351Q383 401 324 401Q300 401 270 385T221 330Q206 296 186 220Q166 136 166 106Q166 72 184 58T228 43Q256 43 284 57T328 84T343 103Q343 106 374 228L404 351Z"></path>
<path stroke-width="1" id="E1-MJMAIN-29" d="M60 749L64 750Q69 750 74 750H86L114 726Q208 641 251 514T294 250Q294 182 284 119T261 12T224 -76T186 -143T145 -194T113 -227T90 -246Q87 -249 86 -250H74Q66 -250 63 -250T58 -247T55 -238Q56 -237 66 -225Q221 -64 221 250T66 725Q56 737 55 738Q55 746 60 749Z"></path>
</defs>
<g stroke="currentColor" fill="currentColor" stroke-width="0" transform="matrix(1 0 0 -1 0 0)">
 <use xlink:href="#E1-MJMATHBI-68" x="0" y="0"></use>
 <use transform="scale(0.707)" xlink:href="#E1-MJMAIN-31" x="945" y="-213"></use>
 <use xlink:href="#E1-MJMAIN-3D" x="1400" y="0"></use>
 <use xlink:href="#E1-MJMATHI-3C3" x="2456" y="0"></use>
 <use xlink:href="#E1-MJMAIN-28" x="3028" y="0"></use>
<g transform="translate(3418,0)">
 <use xlink:href="#E1-MJMATHBI-61" x="0" y="0"></use>
 <use transform="scale(0.707)" xlink:href="#E1-MJMAIN-31" x="895" y="-213"></use>
</g>
 <use xlink:href="#E1-MJMAIN-29" x="4505" y="0"></use>
</g>
</svg>