<svg xmlns:xlink="http://www.w3.org/1999/xlink" width="32.715ex" height="19.843ex" style="font-size: 15px; vertical-align: -9.338ex;" viewBox="0 -4522.8 14085.5 8543.3" role="img" focusable="false" xmlns="http://www.w3.org/2000/svg">
<defs>
<path stroke-width="1" id="E1-MJMAIN-2202" d="M202 508Q179 508 169 520T158 547Q158 557 164 577T185 624T230 675T301 710L333 715H345Q378 715 384 714Q447 703 489 661T549 568T566 457Q566 362 519 240T402 53Q321 -22 223 -22Q123 -22 73 56Q42 102 42 148V159Q42 276 129 370T322 465Q383 465 414 434T455 367L458 378Q478 461 478 515Q478 603 437 639T344 676Q266 676 223 612Q264 606 264 572Q264 547 246 528T202 508ZM430 306Q430 372 401 400T333 428Q270 428 222 382Q197 354 183 323T150 221Q132 149 132 116Q132 21 232 21Q244 21 250 22Q327 35 374 112Q389 137 409 196T430 306Z"></path>
<path stroke-width="1" id="E1-MJMATHBI-66" d="M584 444Q597 439 597 426Q597 409 586 387Q580 382 505 382H434V380Q432 378 421 314T395 162T368 30Q324 -164 203 -199Q194 -201 175 -201Q123 -201 94 -177T64 -117T88 -58T145 -33Q169 -33 184 -47T200 -84Q200 -122 166 -150L174 -151H185Q202 -148 217 -112Q222 -94 240 9Q246 40 262 132T293 303T307 382H247H210Q190 382 182 385T173 400Q177 436 189 442Q193 444 256 444H318L319 446Q337 565 355 602Q373 640 404 664T458 694T503 701Q569 701 596 676T624 617Q624 581 599 557T544 533Q520 533 504 547T488 585Q488 596 491 606T499 624T508 637T516 646L520 650Q515 650 509 651Q459 651 459 561V554L458 518L452 484Q446 448 445 447V444H584Z"></path>
<path stroke-width="1" id="E1-MJMATHBI-78" d="M74 282H63Q43 282 43 296Q43 298 45 307T56 332T76 365T110 401T159 433Q200 451 233 451H236Q273 451 282 450Q358 437 382 400L392 410Q434 452 483 452Q538 452 568 421T599 346Q599 303 573 280T517 256Q494 256 478 270T462 308Q462 343 488 367Q501 377 520 385Q520 386 516 389T502 396T480 400T462 398Q429 383 415 341Q354 116 354 80T405 44Q449 44 485 74T535 142Q539 156 542 159T562 162H568H579Q599 162 599 148Q599 135 586 111T550 60T485 12T397 -8Q313 -8 266 35L258 44Q215 -7 161 -7H156Q99 -7 71 25T43 95Q43 143 70 165T125 188Q148 188 164 174T180 136Q180 101 154 77Q141 67 122 59Q124 54 136 49T161 43Q183 43 200 61T226 103Q287 328 287 364T236 400Q200 400 164 377T107 302Q103 288 100 285T80 282H74Z"></path>
<path stroke-width="1" id="E1-MJMAIN-3D" d="M56 347Q56 360 70 367H707Q722 359 722 347Q722 336 708 328L390 327H72Q56 332 56 347ZM56 153Q56 168 72 173H708Q722 163 722 153Q722 140 707 133H70Q56 140 56 153Z"></path>
<path stroke-width="1" id="E1-MJMAIN-5B" d="M118 -250V750H255V710H158V-210H255V-250H118Z"></path>
<path stroke-width="1" id="E1-MJMATHI-66" d="M118 -162Q120 -162 124 -164T135 -167T147 -168Q160 -168 171 -155T187 -126Q197 -99 221 27T267 267T289 382V385H242Q195 385 192 387Q188 390 188 397L195 425Q197 430 203 430T250 431Q298 431 298 432Q298 434 307 482T319 540Q356 705 465 705Q502 703 526 683T550 630Q550 594 529 578T487 561Q443 561 443 603Q443 622 454 636T478 657L487 662Q471 668 457 668Q445 668 434 658T419 630Q412 601 403 552T387 469T380 433Q380 431 435 431Q480 431 487 430T498 424Q499 420 496 407T491 391Q489 386 482 386T428 385H372L349 263Q301 15 282 -47Q255 -132 212 -173Q175 -205 139 -205Q107 -205 81 -186T55 -132Q55 -95 76 -78T118 -61Q162 -61 162 -103Q162 -122 151 -136T127 -157L118 -162Z"></path>
<path stroke-width="1" id="E1-MJMAIN-31" d="M213 578L200 573Q186 568 160 563T102 556H83V602H102Q149 604 189 617T245 641T273 663Q275 666 285 666Q294 666 302 660V361L303 61Q310 54 315 52T339 48T401 46H427V0H416Q395 3 257 3Q121 3 100 0H88V46H114Q136 46 152 46T177 47T193 50T201 52T207 57T213 61V578Z"></path>
<path stroke-width="1" id="E1-MJMATHI-78" d="M52 289Q59 331 106 386T222 442Q257 442 286 424T329 379Q371 442 430 442Q467 442 494 420T522 361Q522 332 508 314T481 292T458 288Q439 288 427 299T415 328Q415 374 465 391Q454 404 425 404Q412 404 406 402Q368 386 350 336Q290 115 290 78Q290 50 306 38T341 26Q378 26 414 59T463 140Q466 150 469 151T485 153H489Q504 153 504 145Q504 144 502 134Q486 77 440 33T333 -11Q263 -11 227 52Q186 -10 133 -10H127Q78 -10 57 16T35 71Q35 103 54 123T99 143Q142 143 142 101Q142 81 130 66T107 46T94 41L91 40Q91 39 97 36T113 29T132 26Q168 26 194 71Q203 87 217 139T245 247T261 313Q266 340 266 352Q266 380 251 392T217 404Q177 404 142 372T93 290Q91 281 88 280T72 278H58Q52 284 52 289Z"></path>
<path stroke-width="1" id="E1-MJMAIN-32" d="M109 429Q82 429 66 447T50 491Q50 562 103 614T235 666Q326 666 387 610T449 465Q449 422 429 383T381 315T301 241Q265 210 201 149L142 93L218 92Q375 92 385 97Q392 99 409 186V189H449V186Q448 183 436 95T421 3V0H50V19V31Q50 38 56 46T86 81Q115 113 136 137Q145 147 170 174T204 211T233 244T261 278T284 308T305 340T320 369T333 401T340 431T343 464Q343 527 309 573T212 619Q179 619 154 602T119 569T109 550Q109 549 114 549Q132 549 151 535T170 489Q170 464 154 447T109 429Z"></path>
<path stroke-width="1" id="E1-MJMAIN-22EF" d="M78 250Q78 274 95 292T138 310Q162 310 180 294T199 251Q199 226 182 208T139 190T96 207T78 250ZM525 250Q525 274 542 292T585 310Q609 310 627 294T646 251Q646 226 629 208T586 190T543 207T525 250ZM972 250Q972 274 989 292T1032 310Q1056 310 1074 294T1093 251Q1093 226 1076 208T1033 190T990 207T972 250Z"></path>
<path stroke-width="1" id="E1-MJMATHI-70" d="M23 287Q24 290 25 295T30 317T40 348T55 381T75 411T101 433T134 442Q209 442 230 378L240 387Q302 442 358 442Q423 442 460 395T497 281Q497 173 421 82T249 -10Q227 -10 210 -4Q199 1 187 11T168 28L161 36Q160 35 139 -51T118 -138Q118 -144 126 -145T163 -148H188Q194 -155 194 -157T191 -175Q188 -187 185 -190T172 -194Q170 -194 161 -194T127 -193T65 -192Q-5 -192 -24 -194H-32Q-39 -187 -39 -183Q-37 -156 -26 -148H-6Q28 -147 33 -136Q36 -130 94 103T155 350Q156 355 156 364Q156 405 131 405Q109 405 94 377T71 316T59 280Q57 278 43 278H29Q23 284 23 287ZM178 102Q200 26 252 26Q282 26 310 49T356 107Q374 141 392 215T411 325V331Q411 405 350 405Q339 405 328 402T306 393T286 380T269 365T254 350T243 336T235 326L232 322Q232 321 229 308T218 264T204 212Q178 106 178 102Z"></path>
<path stroke-width="1" id="E1-MJMAIN-22EE" d="M78 30Q78 54 95 72T138 90Q162 90 180 74T199 31Q199 6 182 -12T139 -30T96 -13T78 30ZM78 440Q78 464 95 482T138 500Q162 500 180 484T199 441Q199 416 182 398T139 380T96 397T78 440ZM78 840Q78 864 95 882T138 900Q162 900 180 884T199 841Q199 816 182 798T139 780T96 797T78 840Z"></path>
<path stroke-width="1" id="E1-MJMAIN-22F1" d="M133 760Q133 784 150 802T193 820Q217 820 235 804T254 761Q254 736 237 718T194 700T151 717T133 760ZM580 460Q580 484 597 502T640 520Q664 520 682 504T701 461Q701 436 684 418T641 400T598 417T580 460ZM1027 160Q1027 184 1044 202T1087 220Q1111 220 1129 204T1148 161Q1148 136 1131 118T1088 100T1045 117T1027 160Z"></path>
<path stroke-width="1" id="E1-MJMATHI-6D" d="M21 287Q22 293 24 303T36 341T56 388T88 425T132 442T175 435T205 417T221 395T229 376L231 369Q231 367 232 367L243 378Q303 442 384 442Q401 442 415 440T441 433T460 423T475 411T485 398T493 385T497 373T500 364T502 357L510 367Q573 442 659 442Q713 442 746 415T780 336Q780 285 742 178T704 50Q705 36 709 31T724 26Q752 26 776 56T815 138Q818 149 821 151T837 153Q857 153 857 145Q857 144 853 130Q845 101 831 73T785 17T716 -10Q669 -10 648 17T627 73Q627 92 663 193T700 345Q700 404 656 404H651Q565 404 506 303L499 291L466 157Q433 26 428 16Q415 -11 385 -11Q372 -11 364 -4T353 8T350 18Q350 29 384 161L420 307Q423 322 423 345Q423 404 379 404H374Q288 404 229 303L222 291L189 157Q156 26 151 16Q138 -11 108 -11Q95 -11 87 -5T76 7T74 17Q74 30 112 181Q151 335 151 342Q154 357 154 369Q154 405 129 405Q107 405 92 377T69 316T57 280Q55 278 41 278H27Q21 284 21 287Z"></path>
<path stroke-width="1" id="E1-MJMAIN-5D" d="M22 710V750H159V-250H22V-210H119V710H22Z"></path>
<path stroke-width="1" id="E1-MJSZ4-23A1" d="M319 -645V1154H666V1070H403V-645H319Z"></path>
<path stroke-width="1" id="E1-MJSZ4-23A3" d="M319 -644V1155H403V-560H666V-644H319Z"></path>
<path stroke-width="1" id="E1-MJSZ4-23A2" d="M319 0V602H403V0H319Z"></path>
<path stroke-width="1" id="E1-MJSZ4-23A4" d="M0 1070V1154H347V-645H263V1070H0Z"></path>
<path stroke-width="1" id="E1-MJSZ4-23A6" d="M263 -560V1155H347V-644H0V-560H263Z"></path>
<path stroke-width="1" id="E1-MJSZ4-23A5" d="M263 0V602H347V0H263Z"></path>
</defs>
<g stroke="currentColor" fill="currentColor" stroke-width="0" transform="matrix(1 0 0 -1 0 0)">
<g transform="translate(120,0)">
<rect stroke="none" width="1347" height="60" x="0" y="220"></rect>
<g transform="translate(77,721)">
 <use xlink:href="#E1-MJMAIN-2202" x="0" y="0"></use>
 <use xlink:href="#E1-MJMATHBI-66" x="567" y="0"></use>
</g>
<g transform="translate(60,-736)">
 <use xlink:href="#E1-MJMAIN-2202" x="0" y="0"></use>
 <use xlink:href="#E1-MJMATHBI-78" x="567" y="0"></use>
</g>
</g>
 <use xlink:href="#E1-MJMAIN-3D" x="1864" y="0"></use>
<g transform="translate(2921,0)">
<g transform="translate(0,4438)">
 <use xlink:href="#E1-MJSZ4-23A1" x="0" y="-1155"></use>
<g transform="translate(0,-6618.680781913837) scale(1,8.072439107651471)">
 <use xlink:href="#E1-MJSZ4-23A2"></use>
</g>
 <use xlink:href="#E1-MJSZ4-23A3" x="0" y="-7733"></use>
</g>
<g transform="translate(834,0)">
<g transform="translate(-11,0)">
<g transform="translate(108,3201)">
<g transform="translate(120,0)">
<rect stroke="none" width="1284" height="60" x="0" y="220"></rect>
<g transform="translate(88,619)">
 <use transform="scale(0.707)" xlink:href="#E1-MJMAIN-2202" x="0" y="0"></use>
<g transform="translate(401,0)">
 <use transform="scale(0.707)" xlink:href="#E1-MJMATHI-66" x="0" y="0"></use>
 <use transform="scale(0.574)" xlink:href="#E1-MJMAIN-31" x="604" y="-304"></use>
</g>
</g>
<g transform="translate(60,-451)">
 <use transform="scale(0.707)" xlink:href="#E1-MJMAIN-2202" x="0" y="0"></use>
<g transform="translate(401,0)">
 <use transform="scale(0.707)" xlink:href="#E1-MJMATHI-78" x="0" y="0"></use>
 <use transform="scale(0.574)" xlink:href="#E1-MJMAIN-31" x="705" y="-243"></use>
</g>
</g>
</g>
</g>
<g transform="translate(108,973)">
<g transform="translate(120,0)">
<rect stroke="none" width="1284" height="60" x="0" y="220"></rect>
<g transform="translate(88,619)">
 <use transform="scale(0.707)" xlink:href="#E1-MJMAIN-2202" x="0" y="0"></use>
<g transform="translate(401,0)">
 <use transform="scale(0.707)" xlink:href="#E1-MJMATHI-66" x="0" y="0"></use>
 <use transform="scale(0.574)" xlink:href="#E1-MJMAIN-31" x="604" y="-304"></use>
</g>
</g>
<g transform="translate(60,-451)">
 <use transform="scale(0.707)" xlink:href="#E1-MJMAIN-2202" x="0" y="0"></use>
<g transform="translate(401,0)">
 <use transform="scale(0.707)" xlink:href="#E1-MJMATHI-78" x="0" y="0"></use>
 <use transform="scale(0.574)" xlink:href="#E1-MJMAIN-32" x="705" y="-243"></use>
</g>
</g>
</g>
</g>
 <use xlink:href="#E1-MJMAIN-22EE" x="731" y="-1538"></use>
<g transform="translate(0,-3376)">
<g transform="translate(120,0)">
<rect stroke="none" width="1501" height="60" x="0" y="220"></rect>
<g transform="translate(197,619)">
 <use transform="scale(0.707)" xlink:href="#E1-MJMAIN-2202" x="0" y="0"></use>
<g transform="translate(401,0)">
 <use transform="scale(0.707)" xlink:href="#E1-MJMATHI-66" x="0" y="0"></use>
 <use transform="scale(0.574)" xlink:href="#E1-MJMAIN-31" x="604" y="-304"></use>
</g>
</g>
<g transform="translate(60,-451)">
 <use transform="scale(0.707)" xlink:href="#E1-MJMAIN-2202" x="0" y="0"></use>
<g transform="translate(401,0)">
 <use transform="scale(0.707)" xlink:href="#E1-MJMATHI-78" x="0" y="0"></use>
 <use transform="scale(0.574)" xlink:href="#E1-MJMATHI-6D" x="705" y="-185"></use>
</g>
</g>
</g>
</g>
</g>
<g transform="translate(2730,0)">
<g transform="translate(108,3201)">
<g transform="translate(120,0)">
<rect stroke="none" width="1284" height="60" x="0" y="220"></rect>
<g transform="translate(88,619)">
 <use transform="scale(0.707)" xlink:href="#E1-MJMAIN-2202" x="0" y="0"></use>
<g transform="translate(401,0)">
 <use transform="scale(0.707)" xlink:href="#E1-MJMATHI-66" x="0" y="0"></use>
 <use transform="scale(0.574)" xlink:href="#E1-MJMAIN-32" x="604" y="-304"></use>
</g>
</g>
<g transform="translate(60,-451)">
 <use transform="scale(0.707)" xlink:href="#E1-MJMAIN-2202" x="0" y="0"></use>
<g transform="translate(401,0)">
 <use transform="scale(0.707)" xlink:href="#E1-MJMATHI-78" x="0" y="0"></use>
 <use transform="scale(0.574)" xlink:href="#E1-MJMAIN-31" x="705" y="-243"></use>
</g>
</g>
</g>
</g>
<g transform="translate(108,973)">
<g transform="translate(120,0)">
<rect stroke="none" width="1284" height="60" x="0" y="220"></rect>
<g transform="translate(88,619)">
 <use transform="scale(0.707)" xlink:href="#E1-MJMAIN-2202" x="0" y="0"></use>
<g transform="translate(401,0)">
 <use transform="scale(0.707)" xlink:href="#E1-MJMATHI-66" x="0" y="0"></use>
 <use transform="scale(0.574)" xlink:href="#E1-MJMAIN-32" x="604" y="-304"></use>
</g>
</g>
<g transform="translate(60,-451)">
 <use transform="scale(0.707)" xlink:href="#E1-MJMAIN-2202" x="0" y="0"></use>
<g transform="translate(401,0)">
 <use transform="scale(0.707)" xlink:href="#E1-MJMATHI-78" x="0" y="0"></use>
 <use transform="scale(0.574)" xlink:href="#E1-MJMAIN-32" x="705" y="-243"></use>
</g>
</g>
</g>
</g>
 <use xlink:href="#E1-MJMAIN-22EE" x="731" y="-1538"></use>
<g transform="translate(0,-3376)">
<g transform="translate(120,0)">
<rect stroke="none" width="1501" height="60" x="0" y="220"></rect>
<g transform="translate(197,619)">
 <use transform="scale(0.707)" xlink:href="#E1-MJMAIN-2202" x="0" y="0"></use>
<g transform="translate(401,0)">
 <use transform="scale(0.707)" xlink:href="#E1-MJMATHI-66" x="0" y="0"></use>
 <use transform="scale(0.574)" xlink:href="#E1-MJMAIN-32" x="604" y="-304"></use>
</g>
</g>
<g transform="translate(60,-451)">
 <use transform="scale(0.707)" xlink:href="#E1-MJMAIN-2202" x="0" y="0"></use>
<g transform="translate(401,0)">
 <use transform="scale(0.707)" xlink:href="#E1-MJMATHI-78" x="0" y="0"></use>
 <use transform="scale(0.574)" xlink:href="#E1-MJMATHI-6D" x="705" y="-185"></use>
</g>
</g>
</g>
</g>
</g>
<g transform="translate(5471,0)">
 <use xlink:href="#E1-MJMAIN-22EF" x="55" y="3201"></use>
 <use xlink:href="#E1-MJMAIN-22EF" x="55" y="973"></use>
 <use xlink:href="#E1-MJMAIN-22F1" x="0" y="-1538"></use>
 <use xlink:href="#E1-MJMAIN-22EF" x="55" y="-3376"></use>
</g>
<g transform="translate(7754,0)">
<g transform="translate(108,3201)">
<g transform="translate(120,0)">
<rect stroke="none" width="1284" height="60" x="0" y="220"></rect>
<g transform="translate(88,730)">
 <use transform="scale(0.707)" xlink:href="#E1-MJMAIN-2202" x="0" y="0"></use>
<g transform="translate(401,0)">
 <use transform="scale(0.707)" xlink:href="#E1-MJMATHI-66" x="0" y="0"></use>
 <use transform="scale(0.574)" xlink:href="#E1-MJMATHI-70" x="604" y="-304"></use>
</g>
</g>
<g transform="translate(60,-451)">
 <use transform="scale(0.707)" xlink:href="#E1-MJMAIN-2202" x="0" y="0"></use>
<g transform="translate(401,0)">
 <use transform="scale(0.707)" xlink:href="#E1-MJMATHI-78" x="0" y="0"></use>
 <use transform="scale(0.574)" xlink:href="#E1-MJMAIN-31" x="705" y="-243"></use>
</g>
</g>
</g>
</g>
<g transform="translate(108,973)">
<g transform="translate(120,0)">
<rect stroke="none" width="1284" height="60" x="0" y="220"></rect>
<g transform="translate(88,730)">
 <use transform="scale(0.707)" xlink:href="#E1-MJMAIN-2202" x="0" y="0"></use>
<g transform="translate(401,0)">
 <use transform="scale(0.707)" xlink:href="#E1-MJMATHI-66" x="0" y="0"></use>
 <use transform="scale(0.574)" xlink:href="#E1-MJMATHI-70" x="604" y="-304"></use>
</g>
</g>
<g transform="translate(60,-451)">
 <use transform="scale(0.707)" xlink:href="#E1-MJMAIN-2202" x="0" y="0"></use>
<g transform="translate(401,0)">
 <use transform="scale(0.707)" xlink:href="#E1-MJMATHI-78" x="0" y="0"></use>
 <use transform="scale(0.574)" xlink:href="#E1-MJMAIN-32" x="705" y="-243"></use>
</g>
</g>
</g>
</g>
 <use xlink:href="#E1-MJMAIN-22EE" x="731" y="-1538"></use>
<g transform="translate(0,-3376)">
<g transform="translate(120,0)">
<rect stroke="none" width="1501" height="60" x="0" y="220"></rect>
<g transform="translate(196,730)">
 <use transform="scale(0.707)" xlink:href="#E1-MJMAIN-2202" x="0" y="0"></use>
<g transform="translate(401,0)">
 <use transform="scale(0.707)" xlink:href="#E1-MJMATHI-66" x="0" y="0"></use>
 <use transform="scale(0.574)" xlink:href="#E1-MJMATHI-70" x="604" y="-304"></use>
</g>
</g>
<g transform="translate(60,-451)">
 <use transform="scale(0.707)" xlink:href="#E1-MJMAIN-2202" x="0" y="0"></use>
<g transform="translate(401,0)">
 <use transform="scale(0.707)" xlink:href="#E1-MJMATHI-78" x="0" y="0"></use>
 <use transform="scale(0.574)" xlink:href="#E1-MJMATHI-6D" x="705" y="-185"></use>
</g>
</g>
</g>
</g>
</g>
</g>
<g transform="translate(10496,4438)">
 <use xlink:href="#E1-MJSZ4-23A4" x="0" y="-1155"></use>
<g transform="translate(0,-6618.680781913837) scale(1,8.072439107651471)">
 <use xlink:href="#E1-MJSZ4-23A5"></use>
</g>
 <use xlink:href="#E1-MJSZ4-23A6" x="0" y="-7733"></use>
</g>
</g>
</g>
</svg>