<svg xmlns:xlink="http://www.w3.org/1999/xlink" width="22.654ex" height="3.176ex" style="font-size: 15px; vertical-align: -0.838ex;" viewBox="0 -1006.6 9753.6 1367.4" role="img" focusable="false" xmlns="http://www.w3.org/2000/svg">
<defs>
<path stroke-width="1" id="E1-MJMAIN-2207" d="M46 676Q46 679 51 683H781Q786 679 786 676Q786 674 617 326T444 -26Q439 -33 416 -33T388 -26Q385 -22 216 326T46 676ZM697 596Q697 597 445 597T193 596Q195 591 319 336T445 80L697 596Z"></path>
<path stroke-width="1" id="E1-MJMATHBI-77" d="M636 367Q636 400 664 426T719 453Q748 453 772 431T796 357Q796 321 782 256T727 112T633 6Q604 -8 567 -8Q466 -8 415 43Q414 42 410 38T403 31T396 25T388 18T378 11T367 5T355 0T340 -4T324 -7T306 -8Q249 -8 209 5T151 40T125 84T117 129Q117 176 153 274T190 388Q190 408 158 396Q112 376 90 306Q85 288 81 285T61 282H55H44Q24 282 24 296Q24 305 34 328T63 380T114 430T187 452Q240 452 274 427T309 362Q309 346 275 255T240 117Q240 43 317 43Q325 43 333 45T347 50T359 57T369 66T377 75T383 83T388 90L390 95Q390 99 389 110T387 129Q387 139 391 167Q393 177 419 282T448 396Q456 414 475 429T519 444Q546 444 559 428T572 397Q572 384 542 265T511 114Q511 43 579 43Q608 43 633 66T673 122T699 188T714 244L718 267Q718 291 673 315Q636 335 636 367Z"></path>
<path stroke-width="1" id="E1-MJMATHI-6C" d="M117 59Q117 26 142 26Q179 26 205 131Q211 151 215 152Q217 153 225 153H229Q238 153 241 153T246 151T248 144Q247 138 245 128T234 90T214 43T183 6T137 -11Q101 -11 70 11T38 85Q38 97 39 102L104 360Q167 615 167 623Q167 626 166 628T162 632T157 634T149 635T141 636T132 637T122 637Q112 637 109 637T101 638T95 641T94 647Q94 649 96 661Q101 680 107 682T179 688Q194 689 213 690T243 693T254 694Q266 694 266 686Q266 675 193 386T118 83Q118 81 118 75T117 65V59Z"></path>
<path stroke-width="1" id="E1-MJMAIN-3D" d="M56 347Q56 360 70 367H707Q722 359 722 347Q722 336 708 328L390 327H72Q56 332 56 347ZM56 153Q56 168 72 173H708Q722 163 722 153Q722 140 707 133H70Q56 140 56 153Z"></path>
<path stroke-width="1" id="E1-MJMATHBI-78" d="M74 282H63Q43 282 43 296Q43 298 45 307T56 332T76 365T110 401T159 433Q200 451 233 451H236Q273 451 282 450Q358 437 382 400L392 410Q434 452 483 452Q538 452 568 421T599 346Q599 303 573 280T517 256Q494 256 478 270T462 308Q462 343 488 367Q501 377 520 385Q520 386 516 389T502 396T480 400T462 398Q429 383 415 341Q354 116 354 80T405 44Q449 44 485 74T535 142Q539 156 542 159T562 162H568H579Q599 162 599 148Q599 135 586 111T550 60T485 12T397 -8Q313 -8 266 35L258 44Q215 -7 161 -7H156Q99 -7 71 25T43 95Q43 143 70 165T125 188Q148 188 164 174T180 136Q180 101 154 77Q141 67 122 59Q124 54 136 49T161 43Q183 43 200 61T226 103Q287 328 287 364T236 400Q200 400 164 377T107 302Q103 288 100 285T80 282H74Z"></path>
<path stroke-width="1" id="E1-MJMAIN-28" d="M94 250Q94 319 104 381T127 488T164 576T202 643T244 695T277 729T302 750H315H319Q333 750 333 741Q333 738 316 720T275 667T226 581T184 443T167 250T184 58T225 -81T274 -167T316 -220T333 -241Q333 -250 318 -250H315H302L274 -226Q180 -141 137 -14T94 250Z"></path>
<path stroke-width="1" id="E1-MJMATHI-3C3" d="M184 -11Q116 -11 74 34T31 147Q31 247 104 333T274 430Q275 431 414 431H552Q553 430 555 429T559 427T562 425T565 422T567 420T569 416T570 412T571 407T572 401Q572 357 507 357Q500 357 490 357T476 358H416L421 348Q439 310 439 263Q439 153 359 71T184 -11ZM361 278Q361 358 276 358Q152 358 115 184Q114 180 114 178Q106 141 106 117Q106 67 131 47T188 26Q242 26 287 73Q316 103 334 153T356 233T361 278Z"></path>
<path stroke-width="1" id="E1-MJMATHI-54" d="M40 437Q21 437 21 445Q21 450 37 501T71 602L88 651Q93 669 101 677H569H659Q691 677 697 676T704 667Q704 661 687 553T668 444Q668 437 649 437Q640 437 637 437T631 442L629 445Q629 451 635 490T641 551Q641 586 628 604T573 629Q568 630 515 631Q469 631 457 630T439 622Q438 621 368 343T298 60Q298 48 386 46Q418 46 427 45T436 36Q436 31 433 22Q429 4 424 1L422 0Q419 0 415 0Q410 0 363 1T228 2Q99 2 64 0H49Q43 6 43 9T45 27Q49 40 55 46H83H94Q174 46 189 55Q190 56 191 56Q196 59 201 76T241 233Q258 301 269 344Q339 619 339 625Q339 630 310 630H279Q212 630 191 624Q146 614 121 583T67 467Q60 445 57 441T43 437H40Z"></path>
<path stroke-width="1" id="E1-MJMAIN-29" d="M60 749L64 750Q69 750 74 750H86L114 726Q208 641 251 514T294 250Q294 182 284 119T261 12T224 -76T186 -143T145 -194T113 -227T90 -246Q87 -249 86 -250H74Q66 -250 63 -250T58 -247T55 -238Q56 -237 66 -225Q221 -64 221 250T66 725Q56 737 55 738Q55 746 60 749Z"></path>
<path stroke-width="1" id="E1-MJMAIN-2212" d="M84 237T84 250T98 270H679Q694 262 694 250T679 230H98Q84 237 84 250Z"></path>
<path stroke-width="1" id="E1-MJMATHI-79" d="M21 287Q21 301 36 335T84 406T158 442Q199 442 224 419T250 355Q248 336 247 334Q247 331 231 288T198 191T182 105Q182 62 196 45T238 27Q261 27 281 38T312 61T339 94Q339 95 344 114T358 173T377 247Q415 397 419 404Q432 431 462 431Q475 431 483 424T494 412T496 403Q496 390 447 193T391 -23Q363 -106 294 -155T156 -205Q111 -205 77 -183T43 -117Q43 -95 50 -80T69 -58T89 -48T106 -45Q150 -45 150 -87Q150 -107 138 -122T115 -142T102 -147L99 -148Q101 -153 118 -160T152 -167H160Q177 -167 186 -165Q219 -156 247 -127T290 -65T313 -9T321 21L315 17Q309 13 296 6T270 -6Q250 -11 231 -11Q185 -11 150 11T104 82Q103 89 103 113Q103 170 138 262T173 379Q173 380 173 381Q173 390 173 393T169 400T158 404H154Q131 404 112 385T82 344T65 302T57 280Q55 278 41 278H27Q21 284 21 287Z"></path>
</defs>
<g stroke="currentColor" fill="currentColor" stroke-width="0" transform="matrix(1 0 0 -1 0 0)">
 <use xlink:href="#E1-MJMAIN-2207" x="0" y="0"></use>
 <use transform="scale(0.707)" xlink:href="#E1-MJMATHBI-77" x="1178" y="-213"></use>
 <use xlink:href="#E1-MJMATHI-6C" x="1521" y="0"></use>
 <use xlink:href="#E1-MJMAIN-3D" x="2097" y="0"></use>
 <use xlink:href="#E1-MJMATHBI-78" x="3154" y="0"></use>
 <use xlink:href="#E1-MJMAIN-28" x="3813" y="0"></use>
 <use xlink:href="#E1-MJMATHI-3C3" x="4203" y="0"></use>
 <use xlink:href="#E1-MJMAIN-28" x="4775" y="0"></use>
<g transform="translate(5165,0)">
 <use xlink:href="#E1-MJMATHBI-78" x="0" y="0"></use>
 <use transform="scale(0.707)" xlink:href="#E1-MJMATHI-54" x="932" y="583"></use>
</g>
 <use xlink:href="#E1-MJMATHBI-77" x="6422" y="0"></use>
 <use xlink:href="#E1-MJMAIN-29" x="7254" y="0"></use>
 <use xlink:href="#E1-MJMAIN-2212" x="7865" y="0"></use>
 <use xlink:href="#E1-MJMATHI-79" x="8866" y="0"></use>
 <use xlink:href="#E1-MJMAIN-29" x="9364" y="0"></use>
</g>
</svg>