<svg xmlns:xlink="http://www.w3.org/1999/xlink" width="7.824ex" height="2.509ex" style="font-size: 15px; vertical-align: -0.671ex;" viewBox="0 -791.3 3368.6 1080.4" role="img" focusable="false" xmlns="http://www.w3.org/2000/svg">
<defs>
<path stroke-width="1" id="E1-MJMATHBI-66" d="M584 444Q597 439 597 426Q597 409 586 387Q580 382 505 382H434V380Q432 378 421 314T395 162T368 30Q324 -164 203 -199Q194 -201 175 -201Q123 -201 94 -177T64 -117T88 -58T145 -33Q169 -33 184 -47T200 -84Q200 -122 166 -150L174 -151H185Q202 -148 217 -112Q222 -94 240 9Q246 40 262 132T293 303T307 382H247H210Q190 382 182 385T173 400Q177 436 189 442Q193 444 256 444H318L319 446Q337 565 355 602Q373 640 404 664T458 694T503 701Q569 701 596 676T624 617Q624 581 599 557T544 533Q520 533 504 547T488 585Q488 596 491 606T499 624T508 637T516 646L520 650Q515 650 509 651Q459 651 459 561V554L458 518L452 484Q446 448 445 447V444H584Z"></path>
<path stroke-width="1" id="E1-MJMAIN-3D" d="M56 347Q56 360 70 367H707Q722 359 722 347Q722 336 708 328L390 327H72Q56 332 56 347ZM56 153Q56 168 72 173H708Q722 163 722 153Q722 140 707 133H70Q56 140 56 153Z"></path>
<path stroke-width="1" id="E1-MJMATHI-41" d="M208 74Q208 50 254 46Q272 46 272 35Q272 34 270 22Q267 8 264 4T251 0Q249 0 239 0T205 1T141 2Q70 2 50 0H42Q35 7 35 11Q37 38 48 46H62Q132 49 164 96Q170 102 345 401T523 704Q530 716 547 716H555H572Q578 707 578 706L606 383Q634 60 636 57Q641 46 701 46Q726 46 726 36Q726 34 723 22Q720 7 718 4T704 0Q701 0 690 0T651 1T578 2Q484 2 455 0H443Q437 6 437 9T439 27Q443 40 445 43L449 46H469Q523 49 533 63L521 213H283L249 155Q208 86 208 74ZM516 260Q516 271 504 416T490 562L463 519Q447 492 400 412L310 260L413 259Q516 259 516 260Z"></path>
<path stroke-width="1" id="E1-MJMATHBI-78" d="M74 282H63Q43 282 43 296Q43 298 45 307T56 332T76 365T110 401T159 433Q200 451 233 451H236Q273 451 282 450Q358 437 382 400L392 410Q434 452 483 452Q538 452 568 421T599 346Q599 303 573 280T517 256Q494 256 478 270T462 308Q462 343 488 367Q501 377 520 385Q520 386 516 389T502 396T480 400T462 398Q429 383 415 341Q354 116 354 80T405 44Q449 44 485 74T535 142Q539 156 542 159T562 162H568H579Q599 162 599 148Q599 135 586 111T550 60T485 12T397 -8Q313 -8 266 35L258 44Q215 -7 161 -7H156Q99 -7 71 25T43 95Q43 143 70 165T125 188Q148 188 164 174T180 136Q180 101 154 77Q141 67 122 59Q124 54 136 49T161 43Q183 43 200 61T226 103Q287 328 287 364T236 400Q200 400 164 377T107 302Q103 288 100 285T80 282H74Z"></path>
</defs>
<g stroke="currentColor" fill="currentColor" stroke-width="0" transform="matrix(1 0 0 -1 0 0)">
 <use xlink:href="#E1-MJMATHBI-66" x="0" y="0"></use>
 <use xlink:href="#E1-MJMAIN-3D" x="902" y="0"></use>
 <use xlink:href="#E1-MJMATHI-41" x="1958" y="0"></use>
 <use xlink:href="#E1-MJMATHBI-78" x="2709" y="0"></use>
</g>
</svg>