<svg xmlns:xlink="http://www.w3.org/1999/xlink" width="4.758ex" height="2.676ex" style="font-size: 15px; vertical-align: -0.838ex;" viewBox="0 -791.3 2048.7 1152.1" role="img" focusable="false" xmlns="http://www.w3.org/2000/svg">
<defs>
<path stroke-width="1" id="E1-MJMATHBI-52" d="M258 624H235Q214 624 209 626T199 639Q203 678 216 684Q220 686 422 686H446H525Q634 686 698 674T806 620Q843 583 843 535Q843 505 833 478T805 432T768 396T728 370T690 352T662 342L651 338L654 336Q658 334 667 327T688 310Q719 278 719 237Q719 222 710 165T701 94Q701 35 748 35Q775 35 793 57T819 101Q822 112 826 114T843 117H849Q881 117 881 99Q881 78 852 39T781 -11Q765 -17 728 -17Q537 -13 537 94Q537 110 552 169T567 243Q567 292 529 309Q517 316 508 316T441 318H375L374 314Q374 312 343 189T311 64Q311 62 355 62H382Q414 62 414 44Q410 6 397 2L393 0L351 1Q325 2 221 2Q147 2 108 1T65 0Q48 0 43 15Q47 54 60 60Q64 62 113 62H162L302 623Q302 624 258 624ZM687 555Q687 617 589 623Q581 624 513 624H451L420 498Q413 468 405 436T392 388L388 371Q388 369 458 369Q464 369 485 369T515 369T541 372T570 377T596 386T624 400Q649 417 664 457T683 522T687 555Z"></path>
<path stroke-width="1" id="E1-MJCAL-58" d="M324 614Q291 576 250 573Q231 573 231 584Q231 589 232 592Q235 601 244 614T271 643T324 671T400 683H403Q462 683 481 610Q485 594 490 545T498 454L501 413Q504 413 551 442T648 509T705 561Q707 565 707 578Q707 610 682 614Q667 614 667 626Q667 641 695 662T755 683Q765 683 775 680T796 662T807 623Q807 596 792 572T713 499T530 376L505 361V356Q508 346 511 278T524 148T557 75Q569 69 580 69Q585 69 593 77Q624 108 660 110Q667 110 670 110T676 106T678 94Q668 59 624 30T510 0Q487 0 471 9T445 32T430 71T422 117T417 173Q416 183 416 188Q413 214 411 244T407 286T405 299Q403 299 344 263T223 182T154 122Q152 118 152 105Q152 69 180 69Q183 69 187 66T191 60L192 58V56Q192 41 163 21T105 0Q94 0 84 3T63 21T52 60Q52 77 56 90T85 131T155 191Q197 223 259 263T362 327T402 352L391 489Q391 492 390 505T387 526T384 547T379 568T372 586T361 602T348 611Q346 612 341 613T333 614H324Z"></path>
<path stroke-width="1" id="E1-MJCAL-59" d="M65 599Q65 618 107 650T204 683Q267 683 312 643T380 533T414 385T424 217Q424 186 423 160T422 123Q426 123 468 170T567 304T650 469Q661 503 661 519Q661 546 639 570Q615 591 583 591Q569 591 569 616Q569 640 582 661T613 683Q624 683 638 679T671 664T702 625T714 558Q714 472 639 329T426 45Q361 -21 282 -82T154 -143Q97 -143 64 -104T31 -20Q31 4 44 25T70 46Q78 46 81 39T87 16T97 -9Q127 -51 182 -51Q184 -51 187 -50H190Q233 -41 314 25Q330 36 330 40Q336 79 336 178Q336 508 223 594Q199 614 158 619L148 620L139 611Q111 586 83 586Q65 586 65 599Z"></path>
</defs>
<g stroke="currentColor" fill="currentColor" stroke-width="0" transform="matrix(1 0 0 -1 0 0)">
 <use xlink:href="#E1-MJMATHBI-52" x="0" y="0"></use>
<g transform="translate(872,-150)">
 <use transform="scale(0.707)" xlink:href="#E1-MJCAL-58" x="0" y="0"></use>
 <use transform="scale(0.707)" xlink:href="#E1-MJCAL-59" x="807" y="0"></use>
</g>
</g>
</svg>