<svg xmlns:xlink="http://www.w3.org/1999/xlink" width="3.237ex" height="2.509ex" style="font-size: 15px; vertical-align: -0.671ex;" viewBox="0 -791.3 1393.5 1080.4" role="img" focusable="false" xmlns="http://www.w3.org/2000/svg">
<defs>
<path stroke-width="1" id="E1-MJMAIN-3A6" d="M312 622Q310 623 307 625T303 629T297 631T286 634T270 635T246 636T211 637H184V683H196Q220 680 361 680T526 683H538V637H511Q468 637 447 635T422 631T411 622V533L425 531Q525 519 595 466T665 342Q665 301 642 267T583 209T506 172T425 152L411 150V61Q417 55 421 53T447 48T511 46H538V0H526Q502 3 361 3T196 0H184V46H211Q231 46 245 46T270 47T286 48T297 51T303 54T307 57T312 61V150H310Q309 151 289 153T232 166T160 195Q149 201 136 210T103 238T69 284T56 342Q56 414 128 467T294 530Q309 532 310 533H312V622ZM170 342Q170 207 307 188H312V495H309Q301 495 282 491T231 469T186 423Q170 389 170 342ZM415 188Q487 199 519 236T551 342Q551 384 539 414T507 459T470 481T434 491T415 495H410V188H415Z"></path>
<path stroke-width="1" id="E1-MJCAL-58" d="M324 614Q291 576 250 573Q231 573 231 584Q231 589 232 592Q235 601 244 614T271 643T324 671T400 683H403Q462 683 481 610Q485 594 490 545T498 454L501 413Q504 413 551 442T648 509T705 561Q707 565 707 578Q707 610 682 614Q667 614 667 626Q667 641 695 662T755 683Q765 683 775 680T796 662T807 623Q807 596 792 572T713 499T530 376L505 361V356Q508 346 511 278T524 148T557 75Q569 69 580 69Q585 69 593 77Q624 108 660 110Q667 110 670 110T676 106T678 94Q668 59 624 30T510 0Q487 0 471 9T445 32T430 71T422 117T417 173Q416 183 416 188Q413 214 411 244T407 286T405 299Q403 299 344 263T223 182T154 122Q152 118 152 105Q152 69 180 69Q183 69 187 66T191 60L192 58V56Q192 41 163 21T105 0Q94 0 84 3T63 21T52 60Q52 77 56 90T85 131T155 191Q197 223 259 263T362 327T402 352L391 489Q391 492 390 505T387 526T384 547T379 568T372 586T361 602T348 611Q346 612 341 613T333 614H324Z"></path>
</defs>
<g stroke="currentColor" fill="currentColor" stroke-width="0" transform="matrix(1 0 0 -1 0 0)">
 <use xlink:href="#E1-MJMAIN-3A6" x="0" y="0"></use>
 <use transform="scale(0.707)" xlink:href="#E1-MJCAL-58" x="1021" y="-213"></use>
</g>
</svg>