<svg xmlns:xlink="http://www.w3.org/1999/xlink" width="75ex" height="5.176ex" style="font-size: 15px; vertical-align: -3.005ex; max-width: 450;" viewBox="0 -934.9 32291.5 2228.5" role="img" focusable="false" xmlns="http://www.w3.org/2000/svg">
<defs>
<path stroke-width="1" id="E1-MJMATHBI-52" d="M258 624H235Q214 624 209 626T199 639Q203 678 216 684Q220 686 422 686H446H525Q634 686 698 674T806 620Q843 583 843 535Q843 505 833 478T805 432T768 396T728 370T690 352T662 342L651 338L654 336Q658 334 667 327T688 310Q719 278 719 237Q719 222 710 165T701 94Q701 35 748 35Q775 35 793 57T819 101Q822 112 826 114T843 117H849Q881 117 881 99Q881 78 852 39T781 -11Q765 -17 728 -17Q537 -13 537 94Q537 110 552 169T567 243Q567 292 529 309Q517 316 508 316T441 318H375L374 314Q374 312 343 189T311 64Q311 62 355 62H382Q414 62 414 44Q410 6 397 2L393 0L351 1Q325 2 221 2Q147 2 108 1T65 0Q48 0 43 15Q47 54 60 60Q64 62 113 62H162L302 623Q302 624 258 624ZM687 555Q687 617 589 623Q581 624 513 624H451L420 498Q413 468 405 436T392 388L388 371Q388 369 458 369Q464 369 485 369T515 369T541 372T570 377T596 386T624 400Q649 417 664 457T683 522T687 555Z"></path>
<path stroke-width="1" id="E1-MJMAIN-22A4" d="M55 642T55 648T59 659T66 666T71 668H708Q723 660 723 648T708 628H409V15Q402 2 391 0Q387 0 384 1T379 3T375 6T373 9T371 13T369 16V628H71Q70 628 67 630T59 637Z"></path>
<path stroke-width="1" id="E1-MJCAL-58" d="M324 614Q291 576 250 573Q231 573 231 584Q231 589 232 592Q235 601 244 614T271 643T324 671T400 683H403Q462 683 481 610Q485 594 490 545T498 454L501 413Q504 413 551 442T648 509T705 561Q707 565 707 578Q707 610 682 614Q667 614 667 626Q667 641 695 662T755 683Q765 683 775 680T796 662T807 623Q807 596 792 572T713 499T530 376L505 361V356Q508 346 511 278T524 148T557 75Q569 69 580 69Q585 69 593 77Q624 108 660 110Q667 110 670 110T676 106T678 94Q668 59 624 30T510 0Q487 0 471 9T445 32T430 71T422 117T417 173Q416 183 416 188Q413 214 411 244T407 286T405 299Q403 299 344 263T223 182T154 122Q152 118 152 105Q152 69 180 69Q183 69 187 66T191 60L192 58V56Q192 41 163 21T105 0Q94 0 84 3T63 21T52 60Q52 77 56 90T85 131T155 191Q197 223 259 263T362 327T402 352L391 489Q391 492 390 505T387 526T384 547T379 568T372 586T361 602T348 611Q346 612 341 613T333 614H324Z"></path>
<path stroke-width="1" id="E1-MJCAL-59" d="M65 599Q65 618 107 650T204 683Q267 683 312 643T380 533T414 385T424 217Q424 186 423 160T422 123Q426 123 468 170T567 304T650 469Q661 503 661 519Q661 546 639 570Q615 591 583 591Q569 591 569 616Q569 640 582 661T613 683Q624 683 638 679T671 664T702 625T714 558Q714 472 639 329T426 45Q361 -21 282 -82T154 -143Q97 -143 64 -104T31 -20Q31 4 44 25T70 46Q78 46 81 39T87 16T97 -9Q127 -51 182 -51Q184 -51 187 -50H190Q233 -41 314 25Q330 36 330 40Q336 79 336 178Q336 508 223 594Q199 614 158 619L148 620L139 611Q111 586 83 586Q65 586 65 599Z"></path>
<path stroke-width="1" id="E1-MJMATHI-67" d="M311 43Q296 30 267 15T206 0Q143 0 105 45T66 160Q66 265 143 353T314 442Q361 442 401 394L404 398Q406 401 409 404T418 412T431 419T447 422Q461 422 470 413T480 394Q480 379 423 152T363 -80Q345 -134 286 -169T151 -205Q10 -205 10 -137Q10 -111 28 -91T74 -71Q89 -71 102 -80T116 -111Q116 -121 114 -130T107 -144T99 -154T92 -162L90 -164H91Q101 -167 151 -167Q189 -167 211 -155Q234 -144 254 -122T282 -75Q288 -56 298 -13Q311 35 311 43ZM384 328L380 339Q377 350 375 354T369 368T359 382T346 393T328 402T306 405Q262 405 221 352Q191 313 171 233T151 117Q151 38 213 38Q269 38 323 108L331 118L384 328Z"></path>
<path stroke-width="1" id="E1-MJMAIN-3D" d="M56 347Q56 360 70 367H707Q722 359 722 347Q722 336 708 328L390 327H72Q56 332 56 347ZM56 153Q56 168 72 173H708Q722 163 722 153Q722 140 707 133H70Q56 140 56 153Z"></path>
<path stroke-width="1" id="E1-MJMATHI-49" d="M43 1Q26 1 26 10Q26 12 29 24Q34 43 39 45Q42 46 54 46H60Q120 46 136 53Q137 53 138 54Q143 56 149 77T198 273Q210 318 216 344Q286 624 286 626Q284 630 284 631Q274 637 213 637H193Q184 643 189 662Q193 677 195 680T209 683H213Q285 681 359 681Q481 681 487 683H497Q504 676 504 672T501 655T494 639Q491 637 471 637Q440 637 407 634Q393 631 388 623Q381 609 337 432Q326 385 315 341Q245 65 245 59Q245 52 255 50T307 46H339Q345 38 345 37T342 19Q338 6 332 0H316Q279 2 179 2Q143 2 113 2T65 2T43 1Z"></path>
</defs>
<g stroke="currentColor" fill="currentColor" stroke-width="0" transform="matrix(1 0 0 -1 0 0)">
<g transform="translate(13177,0)">
 <use xlink:href="#E1-MJMATHBI-52" x="0" y="0"></use>
 <use transform="scale(0.707)" xlink:href="#E1-MJMAIN-22A4" x="1250" y="488"></use>
<g transform="translate(872,-320)">
 <use transform="scale(0.707)" xlink:href="#E1-MJCAL-58" x="0" y="0"></use>
 <use transform="scale(0.707)" xlink:href="#E1-MJCAL-59" x="807" y="0"></use>
</g>
<g transform="translate(2048,0)">
 <use xlink:href="#E1-MJMATHBI-52" x="0" y="0"></use>
 <use transform="scale(0.707)" xlink:href="#E1-MJMATHI-67" x="1250" y="693"></use>
<g transform="translate(872,-320)">
 <use transform="scale(0.707)" xlink:href="#E1-MJCAL-58" x="0" y="0"></use>
 <use transform="scale(0.707)" xlink:href="#E1-MJCAL-59" x="807" y="0"></use>
</g>
</g>
 <use xlink:href="#E1-MJMAIN-3D" x="4375" y="0"></use>
 <use xlink:href="#E1-MJMATHI-49" x="5431" y="0"></use>
</g>
</g>
</svg>